SplineFontDB: 3.0
FontName: nootka
FullName: nootka
FamilyName: nootka
Weight: Medium
Copyright: Created by SeeLook with FontForge 2.0 (http://fontforge.sf.net) with Emmentaler font from LilyPond project
Version: 001.000
ItalicAngle: 0
UnderlinePosition: -100
UnderlineWidth: 50
Ascent: 800
Descent: 200
sfntRevision: 0x00010000
LayerCount: 2
Layer: 0 1 "Warstwa t+AUIA-a"  1
Layer: 1 1 "Plan pierwszy"  0
XUID: [1021 905 4475020 9871967]
FSType: 0
OS2Version: 4
OS2_WeightWidthSlopeOnly: 0
OS2_UseTypoMetrics: 1
CreationTime: 1307821124
ModificationTime: 1349949813
PfmFamily: 17
TTFWeight: 500
TTFWidth: 5
LineGap: 90
VLineGap: 0
Panose: 2 0 6 9 0 0 0 0 0 0
OS2TypoAscent: 0
OS2TypoAOffset: 1
OS2TypoDescent: 0
OS2TypoDOffset: 1
OS2TypoLinegap: 90
OS2WinAscent: 1
OS2WinAOffset: 1
OS2WinDescent: 0
OS2WinDOffset: 1
HheadAscent: 1
HheadAOffset: 1
HheadDescent: 0
HheadDOffset: 1
OS2SubXSize: 650
OS2SubYSize: 700
OS2SubXOff: 0
OS2SubYOff: 140
OS2SupXSize: 650
OS2SupYSize: 700
OS2SupXOff: 0
OS2SupYOff: 480
OS2StrikeYSize: 49
OS2StrikeYPos: 258
OS2Vendor: 'PfEd'
OS2CodePages: 00000001.00000000
OS2UnicodeRanges: 00000001.10000000.00000000.00000000
MarkAttachClasses: 1
DEI: 91125
ShortTable: cvt  2
  33
  633
EndShort
ShortTable: maxp 16
  1
  0
  24
  164
  7
  0
  0
  2
  0
  1
  1
  0
  64
  46
  0
  0
EndShort
LangName: 1033 "" "" "" "FontForge 2.0 : nootka : 15-12-2011" 
GaspTable: 1 65535 2 0
Encoding: UnicodeBmp
UnicodeInterp: none
NameList: Adobe Glyph List
DisplaySize: -96
AntiAlias: 1
FitToEm: 1
WinInfo: 40 10 3
BeginChars: 65539 31

StartChar: .notdef
Encoding: 65536 -1 0
Width: 1000
Flags: W
LayerCount: 2
Fore
SplineSet
33 0 m 1,0,-1
 33 666 l 1,1,-1
 298 666 l 1,2,-1
 298 0 l 1,3,-1
 33 0 l 1,0,-1
66 33 m 1,4,-1
 265 33 l 1,5,-1
 265 633 l 1,6,-1
 66 633 l 1,7,-1
 66 33 l 1,4,-1
EndSplineSet
Validated: 1
EndChar

StartChar: space
Encoding: 32 32 3
Width: 1000
Flags: W
LayerCount: 2
Fore
SplineSet
590 118 m 1,0,-1
 380 118 l 1,1,-1
 590 118 l 1,0,-1
EndSplineSet
Validated: 1
EndChar

StartChar: numbersign
Encoding: 35 35 4
Width: 1000
Flags: W
LayerCount: 2
Fore
SplineSet
603 256 m 1,0,1
 615 260 615 260 622 260 c 0,2,3
 639 260 639 260 652 247.5 c 128,-1,4
 665 235 665 235 665 217 c 2,5,-1
 665 168 l 2,6,7
 665 155 665 155 657.5 144 c 128,-1,8
 650 133 650 133 639 128 c 2,9,-1
 603 113 l 1,10,-1
 603 -60 l 2,11,12
 603 -73 603 -73 594 -82 c 128,-1,13
 585 -91 585 -91 572.5 -91 c 128,-1,14
 560 -91 560 -91 550.5 -82 c 128,-1,15
 541 -73 541 -73 541 -60 c 2,16,-1
 541 89 l 1,17,-1
 459 54 l 1,18,-1
 459 -120 l 2,19,20
 459 -132 459 -132 449.5 -141 c 128,-1,21
 440 -150 440 -150 427.5 -150 c 128,-1,22
 415 -150 415 -150 406 -141.5 c 128,-1,23
 397 -133 397 -133 397 -120 c 2,24,-1
 397 29 l 1,25,26
 385 24 385 24 378 24 c 0,27,28
 361 24 361 24 348 36.5 c 128,-1,29
 335 49 335 49 335 67 c 2,30,-1
 335 118 l 2,31,32
 335 130 335 130 342.5 141.5 c 128,-1,33
 350 153 350 153 361 157 c 2,34,-1
 397 172 l 1,35,-1
 397 344 l 1,36,37
 385 340 385 340 378 340 c 0,38,39
 361 340 361 340 348 352.5 c 128,-1,40
 335 365 335 365 335 383 c 2,41,-1
 335 432 l 2,42,43
 335 445 335 445 342.5 456 c 128,-1,44
 350 467 350 467 361 472 c 2,45,-1
 397 487 l 1,46,-1
 397 660 l 2,47,48
 397 673 397 673 406 682 c 128,-1,49
 415 691 415 691 427.5 691 c 128,-1,50
 440 691 440 691 449.5 682 c 128,-1,51
 459 673 459 673 459 660 c 2,52,-1
 459 511 l 1,53,-1
 541 546 l 1,54,-1
 541 720 l 2,55,56
 541 732 541 732 550.5 741 c 128,-1,57
 560 750 560 750 572.5 750 c 128,-1,58
 585 750 585 750 594 741.5 c 128,-1,59
 603 733 603 733 603 720 c 2,60,-1
 603 571 l 1,61,62
 615 576 615 576 622 576 c 0,63,64
 639 576 639 576 652 563.5 c 128,-1,65
 665 551 665 551 665 533 c 2,66,-1
 665 482 l 2,67,68
 665 470 665 470 657.5 458.5 c 128,-1,69
 650 447 650 447 639 443 c 2,70,-1
 603 428 l 1,71,-1
 603 256 l 1,0,1
541 403 m 1,72,-1
 459 370 l 1,73,-1
 459 197 l 1,74,-1
 541 230 l 1,75,-1
 541 403 l 1,72,-1
EndSplineSet
Validated: 1
EndChar

StartChar: one
Encoding: 49 49 5
Width: 1000
Flags: W
HStem: -1 21<410.499 589.501> 111 35<317.642 382.4 625.353 693.996> 778 21<410.499 589.501>
VStem: 100 21<309.448 488.552> 426 155<188.824 540.265> 879 21<309.448 488.552>
LayerCount: 2
Fore
SplineSet
503.5 690 m 132,-1,1
 519 690 519 690 539.5 698.5 c 132,-1,2
 560 707 560 707 562 707 c 4,3,4
 569 707 569 707 575 700 c 132,-1,5
 581 693 581 693 581 682 c 6,6,-1
 581 265 l 6,7,8
 581 216 581 216 608 181 c 132,-1,9
 635 146 635 146 677 146 c 4,10,11
 694 146 694 146 694 128 c 4,12,13
 694 111 694 111 677 111 c 4,14,15
 648 111 648 111 590.5 119.5 c 132,-1,16
 533 128 533 128 503.5 128 c 132,-1,17
 474 128 474 128 417 119.5 c 132,-1,18
 360 111 360 111 331 111 c 4,19,20
 322 111 322 111 317.5 116 c 132,-1,21
 313 121 313 121 313 128 c 132,-1,22
 313 135 313 135 317.5 140.5 c 132,-1,23
 322 146 322 146 331 146 c 4,24,25
 373 146 373 146 399.5 181 c 132,-1,26
 426 216 426 216 426 265 c 6,27,-1
 426 521 l 6,28,29
 426 533 426 533 418.5 540.5 c 132,-1,30
 411 548 411 548 402 548 c 4,31,32
 392 548 392 548 389 540 c 6,33,-1
 311 388 l 5,34,35
 304 378 304 378 293 378 c 4,36,37
 284 378 284 378 277 383.5 c 132,-1,38
 270 389 270 389 270 398 c 4,39,40
 270 405 270 405 272 409 c 6,41,-1
 426 706 l 6,42,43
 428 711 428 711 434 711 c 260,44,45
 440 711 440 711 464 700.5 c 132,-1,0
 488 690 488 690 503.5 690 c 132,-1,1
500 799 m 132,-1,47
 609 799 609 799 701 745.5 c 132,-1,48
 793 692 793 692 846.5 600 c 132,-1,49
 900 508 900 508 900 399 c 132,-1,50
 900 290 900 290 846.5 198 c 132,-1,51
 793 106 793 106 701 52.5 c 132,-1,52
 609 -1 609 -1 500 -1 c 132,-1,53
 391 -1 391 -1 299 52.5 c 132,-1,54
 207 106 207 106 153.5 198 c 132,-1,55
 100 290 100 290 100 399 c 132,-1,56
 100 508 100 508 153.5 600 c 132,-1,57
 207 692 207 692 299 745.5 c 132,-1,46
 391 799 391 799 500 799 c 132,-1,47
500 778 m 132,-1,59
 397 778 397 778 310 727.5 c 132,-1,60
 223 677 223 677 172 589.5 c 132,-1,61
 121 502 121 502 121 399 c 132,-1,62
 121 296 121 296 172 208.5 c 132,-1,63
 223 121 223 121 310 70.5 c 132,-1,64
 397 20 397 20 500 20 c 132,-1,65
 603 20 603 20 690 70.5 c 132,-1,66
 777 121 777 121 828 208.5 c 132,-1,67
 879 296 879 296 879 399 c 132,-1,68
 879 502 879 502 828 589.5 c 132,-1,69
 777 677 777 677 690 727.5 c 132,-1,58
 603 778 603 778 500 778 c 132,-1,59
EndSplineSet
EndChar

StartChar: two
Encoding: 50 50 6
Width: 1000
Flags: W
HStem: -1 21<410.448 589.552> 111 106<549 661.566> 676 35<431.336 529.025> 778 21<410.448 589.552>
VStem: 100 21<309.499 488.501> 284 35<115.641 168.845> 301 109<535 627.052> 564 154<445.365 615.641> 700.5 39.5<222.987 262.359> 879 21<309.499 488.501>
LayerCount: 2
Fore
SplineSet
565 111 m 4,0,1
 533 111 533 111 509.5 119.5 c 132,-1,2
 486 128 486 128 472.5 140 c 132,-1,3
 459 152 459 152 447.5 164.5 c 132,-1,4
 436 177 436 177 422 185.5 c 132,-1,5
 408 194 408 194 391 194 c 4,6,7
 364 194 364 194 342.5 175.5 c 132,-1,8
 321 157 321 157 319 127 c 4,9,10
 317 111 317 111 302 111 c 4,11,12
 295 111 295 111 289.5 115.5 c 132,-1,13
 284 120 284 120 284 128 c 4,14,15
 284 161 284 161 296 190.5 c 132,-1,16
 308 220 308 220 327.5 241.5 c 132,-1,17
 347 263 347 263 372.5 285 c 132,-1,18
 398 307 398 307 424 325 c 132,-1,19
 450 343 450 343 475 365.5 c 132,-1,20
 500 388 500 388 520 411.5 c 132,-1,21
 540 435 540 435 552 467.5 c 132,-1,22
 564 500 564 500 564 537 c 260,23,24
 564 574 564 574 557.5 603.5 c 132,-1,25
 551 633 551 633 533.5 654.5 c 132,-1,26
 516 676 516 676 489 676 c 4,27,28
 457 676 457 676 433.5 662 c 132,-1,29
 410 648 410 648 410 623 c 4,30,31
 410 609 410 609 428.5 587 c 132,-1,32
 447 565 447 565 447 550 c 4,33,34
 447 520 447 520 426 498.5 c 132,-1,35
 405 477 405 477 374 477 c 132,-1,36
 343 477 343 477 322 498.5 c 132,-1,37
 301 520 301 520 301 550 c 4,38,39
 301 619 301 619 357 665 c 132,-1,40
 413 711 413 711 489 711 c 4,41,42
 582 711 582 711 650 663 c 132,-1,43
 718 615 718 615 718 537 c 4,44,45
 718 496 718 496 705 463 c 132,-1,46
 692 430 692 430 672.5 409.5 c 132,-1,47
 653 389 653 389 622 371 c 132,-1,48
 591 353 591 353 564 342.5 c 132,-1,49
 537 332 537 332 499.5 317 c 132,-1,50
 462 302 462 302 439 290 c 5,51,-1
 447 290 l 6,52,53
 483 290 483 290 514 278.5 c 132,-1,54
 545 267 545 267 563 253 c 132,-1,55
 581 239 581 239 604.5 228 c 132,-1,56
 628 217 628 217 651 217 c 4,57,58
 672 217 672 217 684.5 224.5 c 132,-1,59
 697 232 697 232 700.5 241.5 c 132,-1,60
 704 251 704 251 709 259 c 132,-1,61
 714 267 714 267 722 267 c 4,62,63
 729 267 729 267 734.5 262.5 c 132,-1,64
 740 258 740 258 740 250 c 4,65,66
 740 238 740 238 729 216.5 c 132,-1,67
 718 195 718 195 698 170.5 c 132,-1,68
 678 146 678 146 642.5 128.5 c 132,-1,69
 607 111 607 111 565 111 c 4,0,1
900 399 m 132,-1,71
 900 290 900 290 846.5 198 c 132,-1,72
 793 106 793 106 701 52.5 c 132,-1,73
 609 -1 609 -1 500 -1 c 132,-1,74
 391 -1 391 -1 299 52.5 c 132,-1,75
 207 106 207 106 153.5 198 c 132,-1,76
 100 290 100 290 100 399 c 132,-1,77
 100 508 100 508 153.5 600 c 132,-1,78
 207 692 207 692 299 745.5 c 132,-1,79
 391 799 391 799 500 799 c 132,-1,80
 609 799 609 799 701 745.5 c 132,-1,81
 793 692 793 692 846.5 600 c 132,-1,70
 900 508 900 508 900 399 c 132,-1,71
879 399 m 132,-1,83
 879 502 879 502 828.5 589 c 132,-1,84
 778 676 778 676 690.5 727 c 132,-1,85
 603 778 603 778 500 778 c 132,-1,86
 397 778 397 778 309.5 727 c 132,-1,87
 222 676 222 676 171.5 589 c 132,-1,88
 121 502 121 502 121 399 c 132,-1,89
 121 296 121 296 171.5 209 c 132,-1,90
 222 122 222 122 309.5 71 c 132,-1,91
 397 20 397 20 500 20 c 132,-1,92
 603 20 603 20 690.5 71 c 132,-1,93
 778 122 778 122 828.5 209 c 132,-1,82
 879 296 879 296 879 399 c 132,-1,83
EndSplineSet
EndChar

StartChar: three
Encoding: 51 51 7
Width: 1000
Flags: W
HStem: -1 21<410.499 589.552> 111 35<417.352 535.231> 409 43<407.673 553.682> 676 35<418.927 537.645> 778 21<410.499 589.552>
VStem: 100 21<309.364 488.18> 304 96<185.013 268.5> 321 85<567.5 646.579> 564 156<198.71 358.635> 564 135<484.162 644.043> 879 21<309.364 488.18>
LayerCount: 2
Fore
SplineSet
628 430 m 4,0,1
 628 418 628 418 637.5 408.5 c 132,-1,2
 647 399 647 399 660.5 390.5 c 132,-1,3
 674 382 674 382 687.5 370.5 c 132,-1,4
 701 359 701 359 710.5 336 c 132,-1,5
 720 313 720 313 720 280 c 4,6,7
 720 199 720 199 657 155 c 132,-1,8
 594 111 594 111 496 111 c 4,9,10
 419 111 419 111 361.5 150.5 c 132,-1,11
 304 190 304 190 304 254 c 4,12,13
 304 283 304 283 324.5 303 c 132,-1,14
 345 323 345 323 374 323 c 132,-1,15
 403 323 403 323 423.5 303 c 132,-1,16
 444 283 444 283 444 254 c 4,17,18
 444 241 444 241 422 225 c 132,-1,19
 400 209 400 209 400 196 c 4,20,21
 400 169 400 169 428 157.5 c 132,-1,22
 456 146 456 146 496 146 c 4,23,24
 564 146 564 146 564 280 c 6,25,-1
 564 326 l 6,26,27
 564 368 564 368 554 388.5 c 132,-1,28
 544 409 544 409 512 409 c 6,29,-1
 423 409 l 6,30,31
 413 409 413 409 407.5 415 c 132,-1,32
 402 421 402 421 402 430 c 132,-1,33
 402 439 402 439 407.5 445.5 c 132,-1,34
 413 452 413 452 423 452 c 6,35,-1
 512 452 l 6,36,37
 545 452 545 452 554.5 473 c 132,-1,38
 564 494 564 494 564 539 c 6,39,-1
 564 575 l 6,40,41
 564 676 564 676 490 676 c 4,42,43
 406 676 406 676 406 631 c 4,44,45
 406 619 406 619 425 605.5 c 132,-1,46
 444 592 444 592 444 580 c 4,47,48
 444 555 444 555 426 537 c 132,-1,49
 408 519 408 519 382.5 519 c 132,-1,50
 357 519 357 519 339 537 c 132,-1,51
 321 555 321 555 321 580 c 4,52,53
 321 638 321 638 371.5 674.5 c 132,-1,54
 422 711 422 711 490 711 c 4,55,56
 549 711 549 711 594.5 698 c 132,-1,57
 640 685 640 685 669.5 653.5 c 132,-1,58
 699 622 699 622 699 575 c 4,59,60
 699 538 699 538 692 514 c 132,-1,61
 685 490 685 490 674.5 481 c 132,-1,62
 664 472 664 472 653.5 466 c 132,-1,63
 643 460 643 460 635.5 452 c 132,-1,64
 628 444 628 444 628 430 c 4,0,1
500 799 m 132,-1,66
 609 799 609 799 701 745.5 c 132,-1,67
 793 692 793 692 846.5 599.5 c 132,-1,68
 900 507 900 507 900 398.5 c 132,-1,69
 900 290 900 290 846.5 198 c 132,-1,70
 793 106 793 106 701 52.5 c 132,-1,71
 609 -1 609 -1 500 -1 c 132,-1,72
 391 -1 391 -1 299 52.5 c 132,-1,73
 207 106 207 106 153.5 198 c 132,-1,74
 100 290 100 290 100 398.5 c 132,-1,75
 100 507 100 507 153.5 599.5 c 132,-1,76
 207 692 207 692 299 745.5 c 132,-1,65
 391 799 391 799 500 799 c 132,-1,66
500 778 m 132,-1,78
 397 778 397 778 310 727.5 c 132,-1,79
 223 677 223 677 172 589.5 c 132,-1,80
 121 502 121 502 121 399 c 132,-1,81
 121 296 121 296 172 208.5 c 132,-1,82
 223 121 223 121 310 70.5 c 132,-1,83
 397 20 397 20 500 20 c 132,-1,84
 603 20 603 20 690.5 70.5 c 132,-1,85
 778 121 778 121 828.5 208.5 c 132,-1,86
 879 296 879 296 879 399 c 132,-1,87
 879 502 879 502 828.5 589.5 c 132,-1,88
 778 677 778 677 690.5 727.5 c 132,-1,77
 603 778 603 778 500 778 c 132,-1,78
EndSplineSet
EndChar

StartChar: four
Encoding: 52 52 8
Width: 1000
Flags: W
HStem: -1 21<410.499 589.552> 111 35<322.004 389.552 636.664 700.358> 261 43<254 436 592 701.812> 564 20G<568 576> 778 21<410.499 589.552>
VStem: 100 21<309.364 488.18> 436 156<189.209 261 304 457.407> 879 21<309.364 488.18>
LayerCount: 2
Fore
SplineSet
378 711 m 4,0,1
 379 711 379 711 394 706.5 c 132,-1,2
 409 702 409 702 432 697.5 c 132,-1,3
 455 693 455 693 474 693 c 4,4,5
 503 693 503 693 537 702 c 132,-1,6
 571 711 571 711 574 711 c 4,7,8
 582 711 582 711 588 706 c 132,-1,9
 594 701 594 701 594 694 c 4,10,11
 594 688 594 688 592 686 c 6,12,-1
 254 304 l 5,13,-1
 436 304 l 5,14,-1
 436 419 l 6,15,16
 436 440 436 440 448 450 c 132,-1,17
 460 460 460 460 483.5 474.5 c 132,-1,18
 507 489 507 489 526 513 c 4,19,20
 537 528 537 528 545 547 c 132,-1,21
 553 566 553 566 558.5 575 c 132,-1,22
 564 584 564 584 572 584 c 260,23,24
 580 584 580 584 586 578.5 c 132,-1,25
 592 573 592 573 592 564 c 6,26,-1
 592 304 l 5,27,-1
 686 304 l 6,28,29
 696 304 696 304 702 297.5 c 132,-1,30
 708 291 708 291 708 282.5 c 132,-1,31
 708 274 708 274 702 267.5 c 132,-1,32
 696 261 696 261 686 261 c 6,33,-1
 592 261 l 5,34,35
 593 213 593 213 619.5 179.5 c 132,-1,36
 646 146 646 146 687 146 c 4,37,38
 696 146 696 146 700.5 140.5 c 132,-1,39
 705 135 705 135 705 128 c 132,-1,40
 705 121 705 121 700.5 116 c 132,-1,41
 696 111 696 111 687 111 c 4,42,43
 658 111 658 111 600.5 119.5 c 132,-1,44
 543 128 543 128 513.5 128 c 132,-1,45
 484 128 484 128 426 119.5 c 132,-1,46
 368 111 368 111 339 111 c 4,47,48
 322 111 322 111 322 128 c 4,49,50
 322 146 322 146 339 146 c 4,51,52
 380 146 380 146 407 179.5 c 132,-1,53
 434 213 434 213 436 261 c 5,54,-1
 254 261 l 6,55,56
 230 261 230 261 219 271.5 c 132,-1,57
 208 282 208 282 208 294 c 4,58,59
 208 298 208 298 223.5 317.5 c 132,-1,60
 239 337 239 337 261 370.5 c 132,-1,61
 283 404 283 404 305 447.5 c 132,-1,62
 327 491 327 491 342.5 554.5 c 132,-1,63
 358 618 358 618 358 686 c 4,64,65
 358 696 358 696 364 703.5 c 132,-1,66
 370 711 370 711 378 711 c 4,0,1
500 799 m 132,-1,68
 609 799 609 799 701 745.5 c 132,-1,69
 793 692 793 692 846.5 599.5 c 132,-1,70
 900 507 900 507 900 398.5 c 132,-1,71
 900 290 900 290 846.5 198 c 132,-1,72
 793 106 793 106 701 52.5 c 132,-1,73
 609 -1 609 -1 500 -1 c 132,-1,74
 391 -1 391 -1 299 52.5 c 132,-1,75
 207 106 207 106 153.5 198 c 132,-1,76
 100 290 100 290 100 398.5 c 132,-1,77
 100 507 100 507 153.5 599.5 c 132,-1,78
 207 692 207 692 299 745.5 c 132,-1,67
 391 799 391 799 500 799 c 132,-1,68
500 778 m 132,-1,80
 397 778 397 778 310 727.5 c 132,-1,81
 223 677 223 677 172 589.5 c 132,-1,82
 121 502 121 502 121 399 c 132,-1,83
 121 296 121 296 172 208.5 c 132,-1,84
 223 121 223 121 310 70.5 c 132,-1,85
 397 20 397 20 500 20 c 132,-1,86
 603 20 603 20 690.5 70.5 c 132,-1,87
 778 121 778 121 828.5 208.5 c 132,-1,88
 879 296 879 296 879 399 c 132,-1,89
 879 502 879 502 828.5 589.5 c 132,-1,90
 778 677 778 677 690.5 727.5 c 132,-1,79
 603 778 603 778 500 778 c 132,-1,80
EndSplineSet
EndChar

StartChar: five
Encoding: 53 53 9
Width: 1000
Flags: W
HStem: 1 21<410.499 589.552> 97 35<399.379 526.778> 439 43<398.926 539.549> 780 21<410.499 589.552>
VStem: 100 21<311.364 490.18> 286 96<170.028 254.5> 326 44<439 551.91> 568 154<204.859 389.275> 879 21<311.364 490.18>
LayerCount: 2
Fore
SplineSet
348 697 m 4,0,1
 349 697 349 697 358.5 695.5 c 132,-1,2
 368 694 368 694 383.5 691.5 c 132,-1,3
 399 689 399 689 418.5 686.5 c 132,-1,4
 438 684 438 684 464 682 c 132,-1,5
 490 680 490 680 515 680 c 4,6,7
 551 680 551 680 591.5 684.5 c 132,-1,8
 632 689 632 689 658 693 c 132,-1,9
 684 697 684 697 684 697 c 5,10,11
 694 697 694 697 700.5 692 c 132,-1,12
 707 687 707 687 707 680 c 4,13,14
 707 676 707 676 693.5 662 c 132,-1,15
 680 648 680 648 652 629.5 c 132,-1,16
 624 611 624 611 588 593.5 c 132,-1,17
 552 576 552 576 500 564 c 132,-1,18
 448 552 448 552 394 552 c 4,19,20
 384 552 384 552 377 544.5 c 132,-1,21
 370 537 370 537 370 527 c 6,22,-1
 370 439 l 5,23,24
 413 482 413 482 497 482 c 4,25,26
 605 482 605 482 663.5 434.5 c 132,-1,27
 722 387 722 387 722 289 c 4,28,29
 722 204 722 204 651 150.5 c 132,-1,30
 580 97 580 97 482 97 c 4,31,32
 402 97 402 97 344 135.5 c 132,-1,33
 286 174 286 174 286 240 c 4,34,35
 286 269 286 269 306 289 c 132,-1,36
 326 309 326 309 355 309 c 132,-1,37
 384 309 384 309 404.5 289 c 132,-1,38
 425 269 425 269 425 240 c 4,39,40
 425 227 425 227 403.5 211 c 132,-1,41
 382 195 382 195 382 182 c 4,42,43
 382 132 382 132 482 132 c 4,44,45
 514 132 514 132 533.5 156 c 132,-1,46
 553 180 553 180 560.5 213.5 c 132,-1,47
 568 247 568 247 568 289 c 4,48,49
 568 439 568 439 497 439 c 4,50,51
 450 439 450 439 420.5 430.5 c 132,-1,52
 391 422 391 422 382.5 411.5 c 132,-1,53
 374 401 374 401 365.5 392.5 c 132,-1,54
 357 384 357 384 348 384 c 260,55,56
 339 384 339 384 332.5 390 c 132,-1,57
 326 396 326 396 326 405 c 6,58,-1
 326 673 l 6,59,60
 326 683 326 683 332.5 690 c 132,-1,61
 339 697 339 697 348 697 c 4,0,1
500 801 m 132,-1,63
 609 801 609 801 701 747.5 c 132,-1,64
 793 694 793 694 846.5 601.5 c 132,-1,65
 900 509 900 509 900 400.5 c 132,-1,66
 900 292 900 292 846.5 200 c 132,-1,67
 793 108 793 108 701 54.5 c 132,-1,68
 609 1 609 1 500 1 c 132,-1,69
 391 1 391 1 299 54.5 c 132,-1,70
 207 108 207 108 153.5 200 c 132,-1,71
 100 292 100 292 100 400.5 c 132,-1,72
 100 509 100 509 153.5 601.5 c 132,-1,73
 207 694 207 694 299 747.5 c 132,-1,62
 391 801 391 801 500 801 c 132,-1,63
500 780 m 132,-1,75
 397 780 397 780 310 729.5 c 132,-1,76
 223 679 223 679 172 591.5 c 132,-1,77
 121 504 121 504 121 401 c 132,-1,78
 121 298 121 298 172 210.5 c 132,-1,79
 223 123 223 123 310 72.5 c 132,-1,80
 397 22 397 22 500 22 c 132,-1,81
 603 22 603 22 690.5 72.5 c 132,-1,82
 778 123 778 123 828.5 210.5 c 132,-1,83
 879 298 879 298 879 401 c 132,-1,84
 879 504 879 504 828.5 591.5 c 132,-1,85
 778 679 778 679 690.5 729.5 c 132,-1,74
 603 780 603 780 500 780 c 132,-1,75
EndSplineSet
EndChar

StartChar: six
Encoding: 54 54 10
Width: 1000
Flags: WO
HStem: 3 21<410.499 589.552> 115 35<445.804 532.409> 423 35<445.527 532.409> 680 35<461.17 568.427> 782 21<410.499 589.552>
VStem: 100 21<313.364 492.18> 277 155<276.305 400.306 441 543.844> 553.5 145.5<198.74 374.26> 585 97<569.5 651.096> 879 21<313.364 492.18>
LayerCount: 2
Fore
SplineSet
488 423 m 4,0,1
 453 423 453 423 442.5 401 c 132,-1,2
 432 379 432 379 432 332 c 6,3,-1
 432 287 l 5,4,-1
 432 241 l 6,5,6
 432 194 432 194 442.5 172 c 132,-1,7
 453 150 453 150 488 150 c 4,8,9
 504 150 504 150 515.5 154 c 132,-1,10
 527 158 527 158 534.5 168.5 c 132,-1,11
 542 179 542 179 546 188.5 c 132,-1,12
 550 198 550 198 551.5 217.5 c 132,-1,13
 553 237 553 237 553.5 249 c 132,-1,14
 554 261 554 261 554 286.5 c 132,-1,15
 554 312 554 312 553.5 324 c 132,-1,16
 553 336 553 336 551.5 355.5 c 132,-1,17
 550 375 550 375 546 384.5 c 132,-1,18
 542 394 542 394 534.5 404.5 c 132,-1,19
 527 415 527 415 515.5 419 c 132,-1,20
 504 423 504 423 488 423 c 4,0,1
432 441 m 5,21,22
 468 458 468 458 488 458 c 4,23,24
 585 458 585 458 642 414.5 c 132,-1,25
 699 371 699 371 699 286.5 c 132,-1,26
 699 202 699 202 642 158.5 c 132,-1,27
 585 115 585 115 488 115 c 4,28,29
 422 115 422 115 373 159 c 132,-1,30
 324 203 324 203 300.5 270 c 132,-1,31
 277 337 277 337 277 415 c 260,32,33
 277 493 277 493 305.5 561 c 132,-1,34
 334 629 334 629 389 672 c 132,-1,35
 444 715 444 715 513 715 c 260,36,37
 582 715 582 715 632 678.5 c 132,-1,38
 682 642 682 642 682 584 c 4,39,40
 682 555 682 555 662 535 c 132,-1,41
 642 515 642 515 613 515 c 132,-1,42
 584 515 584 515 563.5 535 c 132,-1,43
 543 555 543 555 543 584 c 4,44,45
 543 597 543 597 564 610.5 c 132,-1,46
 585 624 585 624 585 637 c 4,47,48
 585 659 585 659 564 669.5 c 132,-1,49
 543 680 543 680 513 680 c 4,50,51
 487 680 487 680 470 669.5 c 132,-1,52
 453 659 453 659 444.5 637.5 c 132,-1,53
 436 616 436 616 432.5 592 c 132,-1,54
 429 568 429 568 429 535 c 4,55,56
 429 504 429 504 432 441 c 5,21,22
500 803 m 132,-1,58
 609 803 609 803 701 749.5 c 132,-1,59
 793 696 793 696 846.5 603.5 c 132,-1,60
 900 511 900 511 900 402.5 c 132,-1,61
 900 294 900 294 846.5 202 c 132,-1,62
 793 110 793 110 701 56.5 c 132,-1,63
 609 3 609 3 500 3 c 132,-1,64
 391 3 391 3 299 56.5 c 132,-1,65
 207 110 207 110 153.5 202 c 132,-1,66
 100 294 100 294 100 402.5 c 132,-1,67
 100 511 100 511 153.5 603.5 c 132,-1,68
 207 696 207 696 299 749.5 c 132,-1,57
 391 803 391 803 500 803 c 132,-1,58
500 782 m 132,-1,70
 397 782 397 782 310 731.5 c 132,-1,71
 223 681 223 681 172 593.5 c 132,-1,72
 121 506 121 506 121 403 c 132,-1,73
 121 300 121 300 172 212.5 c 132,-1,74
 223 125 223 125 310 74.5 c 132,-1,75
 397 24 397 24 500 24 c 132,-1,76
 603 24 603 24 690.5 74.5 c 132,-1,77
 778 125 778 125 828.5 212.5 c 132,-1,78
 879 300 879 300 879 403 c 132,-1,79
 879 506 879 506 828.5 593.5 c 132,-1,80
 778 681 778 681 690.5 731.5 c 132,-1,69
 603 782 603 782 500 782 c 132,-1,70
EndSplineSet
EndChar

StartChar: question
Encoding: 63 63 11
Width: 800
Flags: W
HStem: -105.6 132<264.793 451.48> 536 153<388.927 506.284>
VStem: 100 257<408.22 501.746> 232 252<-76.2559 -2.94336> 315 87<73.2043 144.427> 545 155<375.921 496.294>
LayerCount: 2
Fore
SplineSet
232 -39.599609375 m 128,-1,1
 232 -21.599609375 232 -21.599609375 249 -6.599609375 c 128,-1,2
 266 8.400390625 266 8.400390625 295 17.400390625 c 128,-1,3
 324 26.400390625 324 26.400390625 358 26.400390625 c 0,4,5
 410 26.400390625 410 26.400390625 447 6.900390625 c 128,-1,6
 484 -12.599609375 484 -12.599609375 484 -39.599609375 c 128,-1,7
 484 -66.599609375 484 -66.599609375 447 -86.099609375 c 128,-1,8
 410 -105.599609375 410 -105.599609375 358 -105.599609375 c 0,9,10
 324 -105.599609375 324 -105.599609375 295 -96.599609375 c 128,-1,11
 266 -87.599609375 266 -87.599609375 249 -72.599609375 c 128,-1,0
 232 -57.599609375 232 -57.599609375 232 -39.599609375 c 128,-1,1
345 70 m 0,12,13
 315 70 315 70 315 80 c 0,14,15
 315 81 315 81 315.5 83.5 c 128,-1,16
 316 86 316 86 316 93 c 0,17,18
 316 158 316 158 376 217 c 0,19,20
 393 235 393 235 430.5 266 c 128,-1,21
 468 297 468 297 486 315 c 0,22,23
 545 373 545 373 545 434 c 0,24,25
 545 465 545 465 524 495 c 0,26,27
 496 536 496 536 446 536 c 0,28,29
 415 536 415 536 386 513 c 128,-1,30
 357 490 357 490 357 450 c 0,31,32
 357 438 357 438 363 426 c 1,33,34
 371 415 371 415 371 408 c 0,35,36
 371 392 371 392 341 392 c 2,37,-1
 131 392 l 2,38,39
 100 392 100 392 100 445 c 2,40,-1
 100 461 l 2,41,42
 100 689 100 689 430 689 c 0,43,44
 502 689 502 689 565 659 c 0,45,46
 641 624 641 624 678 556 c 0,47,48
 700 515 700 515 700 467 c 0,49,50
 700 391 700 391 642 320 c 0,51,52
 600 268 600 268 548 240 c 0,53,54
 466 196 466 196 420 141 c 0,55,56
 404 121 404 121 404 105 c 1,57,-1
 402 91 l 1,58,59
 402 70 402 70 345 70 c 0,12,13
EndSplineSet
EndChar

StartChar: B
Encoding: 66 66 12
Width: 1000
Flags: W
LayerCount: 2
Fore
SplineSet
552 154 m 2,0,-1
 550 75 l 1,1,-1
 550 61 l 2,2,3
 550 20 550 20 557 -28 c 1,4,5
 608 22 608 22 637 67 c 128,-1,6
 666 112 666 112 666 164 c 0,7,8
 666 201 666 201 653 226.5 c 128,-1,9
 640 252 640 252 614 252 c 0,10,11
 584 252 584 252 569 223.5 c 128,-1,12
 554 195 554 195 552 154 c 2,0,-1
472 -95 m 2,13,-1
 468 51 l 1,14,15
 449 27 449 27 409 -13.5 c 128,-1,16
 369 -54 369 -54 356 -68 c 0,17,18
 347 -78 347 -78 336.5 -100.5 c 128,-1,19
 326 -123 326 -123 314 -136.5 c 128,-1,20
 302 -150 302 -150 284 -150 c 0,21,22
 264 -150 264 -150 251 -134 c 128,-1,23
 238 -118 238 -118 238 -95 c 2,24,-1
 215 737 l 1,25,26
 239 750 239 750 265.5 750 c 128,-1,27
 292 750 292 750 316 737 c 1,28,-1
 303 263 l 1,29,30
 319 294 319 294 348 311.5 c 128,-1,31
 377 329 377 329 412 329 c 0,32,33
 442 329 442 329 461 315 c 1,34,-1
 448 737 l 1,35,36
 471 750 471 750 498 750 c 0,37,38
 526 750 526 750 550 737 c 1,39,-1
 535 263 l 1,40,41
 560 295 560 295 596.5 312 c 128,-1,42
 633 329 633 329 673 329 c 0,43,44
 724 329 724 329 754.5 284 c 128,-1,45
 785 239 785 239 785 176 c 0,46,47
 785 145 785 145 774 117 c 128,-1,48
 763 89 763 89 741.5 63.5 c 128,-1,49
 720 38 720 38 700.5 19.5 c 128,-1,50
 681 1 681 1 649.5 -25.5 c 128,-1,51
 618 -52 618 -52 601 -68 c 1,52,53
 592 -78 592 -78 578 -101 c 128,-1,54
 564 -124 564 -124 550 -137 c 128,-1,55
 536 -150 536 -150 517 -150 c 0,56,57
 497 -150 497 -150 484.5 -134 c 128,-1,58
 472 -118 472 -118 472 -95 c 2,13,-1
300 154 m 2,59,-1
 297 75 l 1,60,-1
 297 60 l 2,61,62
 297 11 297 11 306 -37 c 1,63,64
 397 68 397 68 397 164 c 0,65,66
 397 252 397 252 353 252 c 0,67,68
 303 252 303 252 300 154 c 2,59,-1
EndSplineSet
Validated: 1
EndChar

StartChar: b
Encoding: 98 98 13
Width: 1000
Flags: W
LayerCount: 2
Fore
SplineSet
435 154 m 2,0,-1
 432 75 l 1,1,-1
 432 61 l 2,2,3
 432 20 432 20 439 -28 c 1,4,5
 468 -1 468 -1 483 15 c 128,-1,6
 498 31 498 31 518.5 57.5 c 128,-1,7
 539 84 539 84 548.5 110 c 128,-1,8
 558 136 558 136 558 164 c 0,9,10
 558 200 558 200 543.5 226 c 128,-1,11
 529 252 529 252 502 252 c 0,12,13
 471 252 471 252 453.5 223 c 128,-1,14
 436 194 436 194 435 154 c 2,0,-1
354 -95 m 2,15,-1
 331 737 l 1,16,17
 355 750 355 750 381.5 750 c 128,-1,18
 408 750 408 750 432 737 c 1,19,-1
 419 263 l 1,20,21
 476 329 476 329 561 329 c 0,22,23
 611 329 611 329 640 283 c 128,-1,24
 669 237 669 237 669 174 c 0,25,26
 669 144 669 144 658 116 c 128,-1,27
 647 88 647 88 625 63 c 128,-1,28
 603 38 603 38 583 19.5 c 128,-1,29
 563 1 563 1 531.5 -25.5 c 128,-1,30
 500 -52 500 -52 483 -68 c 1,31,32
 474 -78 474 -78 460.5 -100.5 c 128,-1,33
 447 -123 447 -123 433 -136.5 c 128,-1,34
 419 -150 419 -150 400 -150 c 0,35,36
 380 -150 380 -150 367 -134 c 128,-1,37
 354 -118 354 -118 354 -95 c 2,15,-1
EndSplineSet
Validated: 1
EndChar

StartChar: g
Encoding: 103 103 14
Width: 526
Flags: W
HStem: -67 106<211.47 307 309 325.198> 647 20G<237 284>
VStem: 231 60<355 663.017> 237 47<499.549 667>
LayerCount: 2
Fore
SplineSet
246 -67 m 5,0,1
 139 -62 139 -62 108 0 c 5,2,3
 98.2 22.4 98.2 22.4 98.2 44.31 c 0,4,5
 98.2 53.7 98.2 53.7 100 63 c 4,6,7
 106 94 106 94 126 122 c 4,8,9
 129 127 129 127 136 136.5 c 132,-1,10
 143 146 143 146 146.5 151.5 c 132,-1,11
 150 157 150 157 155 166 c 132,-1,12
 160 175 160 175 162 182.5 c 132,-1,13
 164 190 164 190 164.5 199 c 4,14,15
 164.571428571 200.285714286 164.571428571 200.285714286 164.571428571 201.571428571 c 0,16,17
 164.571428571 209.285714286 164.571428571 209.285714286 162 217 c 5,18,19
 141.452830189 257.471698113 141.452830189 257.471698113 141.452830189 285.53755785 c 0,20,21
 141.452830189 302.547169811 141.452830189 302.547169811 149 315 c 4,22,23
 171 351 171 351 231 354 c 5,24,25
 237.125 516.75 237.125 516.75 237.125 634.328125 c 0,26,27
 237.125 651.125 237.125 651.125 237 667 c 5,28,-1
 284 667 l 5,29,30
 284 610 284 610 287 496 c 132,-1,31
 290 382 290 382 291 355 c 5,32,33
 293.787878788 355.121212121 293.787878788 355.121212121 296.524334252 355.121212121 c 0,34,35
 338.939393939 355.121212121 338.939393939 355.121212121 369 326 c 4,36,37
 387.05 307.95 387.05 307.95 387.05 283.5825 c 0,38,39
 387.05 282.3 387.05 282.3 387 281 c 4,40,41
 386 255 386 255 370 233 c 5,42,43
 358.140350877 217.947368421 358.140350877 217.947368421 358.140350877 200.397968606 c 0,44,45
 358.140350877 179.473684211 358.140350877 179.473684211 375 155 c 4,46,47
 379 149 379 149 386 138.5 c 132,-1,48
 393 128 393 128 397 122 c 132,-1,49
 401 116 401 116 407.5 105 c 132,-1,50
 414 94 414 94 416.5 87.5 c 132,-1,51
 419 81 419 81 423 69.5 c 4,52,53
 426.2 60.3 426.2 60.3 426.2 53.66 c 0,54,55
 426.2 52 426.2 52 426 50.5 c 4,56,57
 425 43 425 43 425 30 c 5,58,59
 421 0 421 0 399.5 -23 c 132,-1,60
 378 -46 378 -46 348 -55 c 4,61,62
 310.857142857 -67.0714285714 310.857142857 -67.0714285714 254.744897959 -67.0714285714 c 0,63,64
 250.428571429 -67.0714285714 250.428571429 -67.0714285714 246 -67 c 5,0,1
309 42 m 5,65,66
 324 42 324 42 326 55 c 5,67,68
 326.076923077 56.0769230769 326.076923077 56.0769230769 326.076923077 57.0828402367 c 0,69,70
 326.076923077 69.1538461538 326.076923077 69.1538461538 315 71 c 4,71,72
 313.75 71.25 313.75 71.25 312.375 71.25 c 0,73,74
 308.25 71.25 308.25 71.25 303 69 c 5,75,76
 294 69 294 69 252.5 69 c 132,-1,77
 211 69 211 69 202 69 c 5,78,79
 200.285714286 63.5714285714 200.285714286 63.5714285714 200.285714286 59.2040816327 c 0,80,81
 200.285714286 48.2857142857 200.285714286 48.2857142857 211 44 c 4,82,83
 223.857142857 38.8571428571 223.857142857 38.8571428571 241.12244898 38.8571428571 c 0,84,85
 244 38.8571428571 244 38.8571428571 247 39 c 5,86,-1
 307 39 l 5,87,-1
 308 41 l 5,88,-1
 309 42 l 5,65,66
275 136 m 4,89,90
 293 140 293 140 303 156.5 c 4,91,92
 310.407407407 168.722222222 310.407407407 168.722222222 310.407407407 182.316186557 c 0,93,94
 310.407407407 187.074074074 310.407407407 187.074074074 309.5 192 c 4,95,96
 306 211 306 211 291 221 c 5,97,98
 279 230 279 230 265.875 230 c 128,-1,99
 252.75 230 252.75 230 238.5 221 c 4,100,101
 215.61971831 206.549295775 215.61971831 206.549295775 215.61971831 184.364411823 c 0,102,103
 215.61971831 178.915492958 215.61971831 178.915492958 217 173 c 4,104,105
 221 154 221 154 238.5 142.5 c 4,106,107
 250.696969697 134.484848485 250.696969697 134.484848485 263.622589532 134.484848485 c 0,108,109
 269.242424242 134.484848485 269.242424242 134.484848485 275 136 c 4,89,90
EndSplineSet
EndChar

StartChar: n
Encoding: 110 110 15
Width: 648
Flags: W
HStem: -78 215<174.05 271.132> 658 20G<333.677 340.177>
VStem: 324.177 21<112.001 490 617.389 677.924> 499.177 48<204.492 367.271>
LayerCount: 2
Fore
SplineSet
184.176757812 -78 m 6,0,1
 152.176757812 -78 152.176757812 -78 126.176757812 -55 c 132,-1,2
 100.176757812 -32 100.176757812 -32 100.176757812 0 c 6,3,-1
 100.176757812 2 l 5,4,5
 102.176757812 58 102.176757812 58 148.676757812 97.5 c 132,-1,6
 195.176757812 137 195.176757812 137 251.176757812 137 c 4,7,8
 287.823242188 137 287.823242188 137 304 124.5 c 132,-1,9
 320.176757812 112 320.176757812 112 322.676757812 112 c 132,-1,10
 325.176757812 112 325.176757812 112 325.176757812 117 c 132,-1,11
 325.176757812 122 325.176757812 122 324.176757812 126 c 5,12,-1
 324.176757812 400 l 6,13,14
 324.176757812 584 324.176757812 584 325.176757812 675 c 5,15,16
 331.176757812 678 331.176757812 678 336.176757812 678 c 4,17,18
 344.176757812 678 344.176757812 678 346.676757812 665.5 c 132,-1,19
 349.176757812 653 349.176757812 653 350.676757812 636.5 c 132,-1,20
 352.176757812 620 352.176757812 620 358.176757812 614 c 5,21,22
 380.778320312 553.149414062 380.778320312 553.149414062 453.676757812 477.5 c 4,23,24
 480.176757812 450 480.176757812 450 505.676757812 412 c 4,25,26
 547.176757812 350.157226562 547.176757812 350.157226562 547.176757812 288 c 4,27,28
 547.176757812 250 547.176757812 250 532.176757812 217 c 5,29,30
 527.176757812 202 527.176757812 202 519.176757812 202 c 132,-1,31
 511.176757812 202 511.176757812 202 503.676757812 216 c 132,-1,32
 496.176757812 230 496.176757812 230 496.176757812 239 c 132,-1,33
 496.176757812 248 496.176757812 248 497.676757812 254.5 c 132,-1,34
 499.176757812 261 499.176757812 261 499.176757812 274 c 4,35,36
 499.176757812 364 499.176757812 364 436.176757812 421 c 5,37,38
 389.176757812 465 389.176757812 465 345.176757812 490 c 5,39,-1
 345.176757812 268 l 6,40,41
 345.176757812 120 345.176757812 120 344.176757812 46 c 5,42,43
 337.176757812 -7 337.176757812 -7 291.676757812 -42.5 c 132,-1,44
 246.176757812 -78 246.176757812 -78 192.176757812 -78 c 6,45,-1
 184.176757812 -78 l 6,0,1
EndSplineSet
EndChar

StartChar: v
Encoding: 118 118 16
Width: 1000
Flags: W
VStem: 380.789 209.587<107.8 244.701>
LayerCount: 2
Fore
SplineSet
204.142 34.2422 m 1,0,1
 226.18 46.2323 226.18 46.2323 283.552 67.7137 c 128,-1,2
 340.923 89.1951 340.923 89.1951 368.387 107.645 c 1,3,4
 381.407067163 123.430081426 381.407067163 123.430081426 383.218533581 136.245540713 c 128,-1,5
 385.03 149.061 385.03 149.061 385.798 153.497 c 128,-1,6
 386.566 157.932 386.566 157.932 386.107 166.647 c 128,-1,7
 385.648 175.361 385.648 175.361 385.569 178.982 c 128,-1,8
 385.49 182.602 385.49 182.602 384.049 192.323 c 128,-1,9
 382.608 202.044 382.608 202.044 382.208 204.562 c 128,-1,10
 381.808 207.081 381.808 207.081 379.913 217.522 c 128,-1,11
 378.017 227.963 378.017 227.963 376.136 232.6455 c 128,-1,12
 374.255 237.328 374.255 237.328 365.837 257.872 c 128,-1,13
 357.418 278.416 357.418 278.416 352.468 289.361 c 0,14,15
 338.006033067 321.347399282 338.006033067 321.347399282 319.124 341.624 c 1,16,17
 284.972 406.997 284.972 406.997 311.742 439.86 c 1,18,19
 310.47 476.765 310.47 476.765 311.569 499.627 c 128,-1,20
 312.668 522.49 312.668 522.49 322.656 553.058 c 128,-1,21
 332.643 583.626 332.643 583.626 353.154 603.539 c 1,22,23
 399.094 661.257 399.094 661.257 478.905 664.073 c 128,-1,24
 558.715 666.89 558.715 666.89 608.552 612.548 c 1,25,26
 666.541 560.154 666.541 560.154 662.982 446.922 c 1,27,28
 671.668194362 435.820577811 671.668194362 435.820577811 672.403097181 425.779288906 c 128,-1,29
 673.138 415.738 673.138 415.738 673.352 409.916 c 128,-1,30
 673.565 404.094 673.565 404.094 671.623 395.885 c 128,-1,31
 669.682 387.675 669.682 387.675 668.703 382.942 c 128,-1,32
 667.724 378.209 667.724 378.209 664.472 369.729 c 128,-1,33
 661.219 361.249 661.219 361.249 660.193 358.521 c 0,34,35
 657.015593528 350.084011246 657.015593528 350.084011246 640.063296764 314.466505623 c 128,-1,36
 623.111 278.849 623.111 278.849 608.971 237.4615 c 128,-1,37
 594.831 196.074 594.831 196.074 590.376 178.856 c 0,38,39
 573.540386215 113.784746631 573.540386215 113.784746631 643.125 78.695 c 0,40,41
 660.138745112 70.114694401 660.138745112 70.114694401 701.328372556 52.5586472005 c 128,-1,42
 742.518 35.0026 742.518 35.0026 768.182 23.6992 c 1,43,44
 653.925 -43.4314 653.925 -43.4314 564.538 -61.9275 c 128,-1,45
 475.151 -80.4235 475.151 -80.4235 392.694 -57.3323 c 128,-1,46
 310.238 -34.2411 310.238 -34.2411 204.142 34.2422 c 1,0,1
519.402 300.029 m 0,47,48
 519.767 320.852 519.767 320.852 513.023 335.127 c 128,-1,49
 506.28 349.401 506.28 349.401 496.418 352.681 c 128,-1,50
 486.555 355.96 486.555 355.96 476.642 352.686 c 128,-1,51
 466.73 349.413 466.73 349.413 459.765 335.138 c 128,-1,52
 452.801 320.863 452.801 320.863 452.843 300.029 c 1,53,54
 450.689 266.472 450.689 266.472 467.826 252.34 c 128,-1,55
 484.963 238.209 484.963 238.209 502.626 252.206 c 128,-1,56
 520.29 266.203 520.29 266.203 519.402 300.029 c 0,47,48
EndSplineSet
EndChar

StartChar: x
Encoding: 120 120 17
Width: 1000
Flags: W
LayerCount: 2
Fore
SplineSet
559 300 m 1,0,1
 604 255 604 255 705 255 c 0,2,3
 718 255 718 255 727 245.5 c 128,-1,4
 736 236 736 236 736 223 c 1,5,-1
 750 81 l 2,6,7
 750 79 750 79 750 78 c 0,8,9
 750 66 750 66 741.5 58 c 128,-1,10
 733 50 733 50 722 50 c 2,11,-1
 719 50 l 1,12,-1
 577 64 l 2,13,14
 563 66 563 66 554 74.5 c 128,-1,15
 545 83 545 83 545 95 c 0,16,17
 545 196 545 196 500 241 c 1,18,19
 455 196 455 196 455 95 c 0,20,21
 455 83 455 83 446 74.5 c 128,-1,22
 437 66 437 66 423 64 c 2,23,-1
 281 50 l 1,24,-1
 278 50 l 2,25,26
 267 50 267 50 258.5 58 c 128,-1,27
 250 66 250 66 250 78 c 0,28,29
 250 79 250 79 250 81 c 2,30,-1
 264 223 l 1,31,32
 264 236 264 236 273 245.5 c 128,-1,33
 282 255 282 255 295 255 c 0,34,35
 396 255 396 255 441 300 c 1,36,37
 396 345 396 345 295 345 c 0,38,39
 282 345 282 345 273 354.5 c 128,-1,40
 264 364 264 364 264 377 c 1,41,-1
 250 519 l 2,42,43
 250 521 250 521 250 522 c 0,44,45
 250 534 250 534 258.5 542 c 128,-1,46
 267 550 267 550 278 550 c 2,47,-1
 281 550 l 1,48,-1
 423 536 l 2,49,50
 437 534 437 534 446 525.5 c 128,-1,51
 455 517 455 517 455 505 c 0,52,53
 455 404 455 404 500 359 c 1,54,55
 545 404 545 404 545 505 c 0,56,57
 545 517 545 517 554 525.5 c 128,-1,58
 563 534 563 534 577 536 c 2,59,-1
 719 550 l 1,60,-1
 722 550 l 2,61,62
 733 550 733 550 741.5 542 c 128,-1,63
 750 534 750 534 750 522 c 0,64,65
 750 521 750 521 750 519 c 2,66,-1
 736 377 l 1,67,68
 736 364 736 364 727 354.5 c 128,-1,69
 718 345 718 345 705 345 c 0,70,71
 604 345 604 345 559 300 c 1,0,1
EndSplineSet
Validated: 1
EndChar

StartChar: uniE10E
Encoding: 57614 57614 18
Width: 1000
Flags: W
LayerCount: 2
Fore
SplineSet
246 386 m 1,0,-1
 177 358 l 1,1,-1
 177 214 l 1,2,-1
 246 242 l 1,3,-1
 246 386 l 1,0,-1
297 263 m 1,4,5
 307 267 307 267 313 267 c 0,6,7
 327 267 327 267 338 256.5 c 128,-1,8
 349 246 349 246 349 231 c 2,9,-1
 349 190 l 2,10,11
 349 179 349 179 342.5 170 c 128,-1,12
 336 161 336 161 327 157 c 2,13,-1
 297 144 l 1,14,-1
 297 0 l 2,15,16
 297 -11 297 -11 289.5 -18.5 c 128,-1,17
 282 -26 282 -26 271.5 -26 c 128,-1,18
 261 -26 261 -26 253.5 -18 c 128,-1,19
 246 -10 246 -10 246 0 c 2,20,-1
 246 124 l 1,21,-1
 177 95 l 1,22,-1
 177 -50 l 2,23,24
 177 -60 177 -60 169 -67.5 c 128,-1,25
 161 -75 161 -75 150.5 -75 c 128,-1,26
 140 -75 140 -75 133 -67.5 c 128,-1,27
 126 -60 126 -60 126 -50 c 2,28,-1
 126 74 l 1,29,30
 116 70 116 70 110 70 c 0,31,32
 95 70 95 70 84.5 80.5 c 128,-1,33
 74 91 74 91 74 106 c 2,34,-1
 74 148 l 2,35,36
 74 159 74 159 80 168 c 128,-1,37
 86 177 86 177 96 181 c 2,38,-1
 126 193 l 1,39,-1
 126 337 l 1,40,41
 116 333 116 333 110 333 c 0,42,43
 95 333 95 333 84.5 343.5 c 128,-1,44
 74 354 74 354 74 369 c 2,45,-1
 74 410 l 2,46,47
 74 421 74 421 80 430 c 128,-1,48
 86 439 86 439 96 443 c 2,49,-1
 126 456 l 1,50,-1
 126 600 l 2,51,52
 126 611 126 611 133 618.5 c 128,-1,53
 140 626 140 626 150.5 626 c 128,-1,54
 161 626 161 626 169 618 c 128,-1,55
 177 610 177 610 177 600 c 2,56,-1
 177 476 l 1,57,-1
 246 505 l 1,58,-1
 246 650 l 2,59,60
 246 660 246 660 253.5 667.5 c 128,-1,61
 261 675 261 675 271.5 675 c 128,-1,62
 282 675 282 675 289.5 667.5 c 128,-1,63
 297 660 297 660 297 650 c 2,64,-1
 297 526 l 1,65,66
 307 530 307 530 313 530 c 0,67,68
 327 530 327 530 338 519.5 c 128,-1,69
 349 509 349 509 349 494 c 2,70,-1
 349 452 l 2,71,72
 349 441 349 441 342.5 432 c 128,-1,73
 336 423 336 423 327 419 c 2,74,-1
 297 407 l 1,75,-1
 297 263 l 1,4,5
EndSplineSet
Validated: 1
EndChar

StartChar: uniE116
Encoding: 57622 57622 19
Width: 1000
Flags: W
LayerCount: 2
Fore
SplineSet
171 675 m 1,0,1
 184 683 184 683 203 683 c 0,2,3
 221 683 221 683 234 675 c 1,4,-1
 230 465 l 1,5,-1
 322 492 l 2,6,7
 324 493 324 493 328 493 c 0,8,9
 336 493 336 493 342.5 487 c 128,-1,10
 349 481 349 481 349 473 c 2,11,-1
 359 -75 l 1,12,13
 346 -83 346 -83 328 -83 c 128,-1,14
 310 -83 310 -83 297 -75 c 1,15,-1
 301 135 l 1,16,-1
 209 108 l 2,17,18
 207 107 207 107 203 107 c 0,19,20
 195 107 195 107 188.5 113 c 128,-1,21
 182 119 182 119 182 127 c 2,22,-1
 171 675 l 1,0,1
302 217 m 1,23,-1
 306 406 l 1,24,-1
 228 383 l 1,25,-1
 225 194 l 1,26,-1
 302 217 l 1,23,-1
EndSplineSet
Validated: 1
EndChar

StartChar: uniE11A
Encoding: 57626 57626 20
Width: 1000
Flags: W
LayerCount: 2
Fore
SplineSet
186 312 m 2,0,-1
 184 258 l 1,1,-1
 184 248 l 2,2,3
 184 219 184 219 189 186 c 1,4,5
 215 211 215 211 229 226 c 128,-1,6
 243 241 243 241 257.5 266 c 128,-1,7
 272 291 272 291 272 313 c 0,8,9
 272 316 272 316 272 320 c 0,10,11
 272 344 272 344 261.5 362 c 128,-1,12
 251 380 251 380 233 380 c 0,13,14
 211 380 211 380 199 360 c 128,-1,15
 187 340 187 340 186 312 c 2,0,-1
130 138 m 2,16,-1
 114 718 l 1,17,18
 132 728 132 728 149 728 c 128,-1,19
 166 728 166 728 184 718 c 1,20,-1
 175 388 l 1,21,22
 213 434 213 434 274 434 c 0,23,24
 309 434 309 434 329 402 c 128,-1,25
 349 370 349 370 349 326 c 0,26,27
 349 300 349 300 335 275 c 128,-1,28
 321 250 321 250 306 235 c 128,-1,29
 291 220 291 220 261.5 194.5 c 128,-1,30
 232 169 232 169 220 158 c 0,31,32
 213 151 213 151 203.5 135 c 128,-1,33
 194 119 194 119 184.5 109.5 c 128,-1,34
 175 100 175 100 162 100 c 0,35,36
 148 100 148 100 139 111.5 c 128,-1,37
 130 123 130 123 130 138 c 2,16,-1
EndSplineSet
Validated: 1
EndChar

StartChar: uniE123
Encoding: 57635 57635 21
Width: 1000
Flags: W
LayerCount: 2
Fore
SplineSet
288 312 m 2,0,-1
 286 258 l 1,1,-1
 286 248 l 2,2,3
 286 219 286 219 291 186 c 1,4,5
 367 260 367 260 367 320 c 128,-1,6
 367 380 367 380 331 380 c 0,7,8
 310 380 310 380 299.5 360.5 c 128,-1,9
 289 341 289 341 288 312 c 2,0,-1
232 138 m 2,10,-1
 229 240 l 1,11,12
 216 225 216 225 188.5 197.5 c 128,-1,13
 161 170 161 170 151 158 c 0,14,15
 145 151 145 151 137.5 135 c 128,-1,16
 130 119 130 119 122 109.5 c 128,-1,17
 114 100 114 100 101 100 c 0,18,19
 87 100 87 100 78 111.5 c 128,-1,20
 69 123 69 123 69 138 c 2,21,-1
 53 718 l 1,22,23
 71 728 71 728 88 728 c 128,-1,24
 105 728 105 728 123 718 c 1,25,-1
 114 388 l 1,26,27
 139 434 139 434 190 434 c 0,28,29
 213 434 213 434 224 424 c 1,30,-1
 215 718 l 1,31,32
 233 728 233 728 250 728 c 0,33,34
 268 728 268 728 286 718 c 1,35,-1
 276 388 l 1,36,37
 311 434 311 434 372 434 c 0,38,39
 408 434 408 434 429 402.5 c 128,-1,40
 450 371 450 371 450 328 c 0,41,42
 450 301 450 301 436 275.5 c 128,-1,43
 422 250 422 250 407.5 235.5 c 128,-1,44
 393 221 393 221 363 195 c 128,-1,45
 333 169 333 169 322 158 c 0,46,47
 315 151 315 151 305.5 135 c 128,-1,48
 296 119 296 119 286 109.5 c 128,-1,49
 276 100 276 100 263 100 c 0,50,51
 249 100 249 100 240.5 111 c 128,-1,52
 232 122 232 122 232 138 c 2,10,-1
112 312 m 2,53,-1
 110 258 l 1,54,-1
 110 246 l 2,55,56
 110 213 110 213 116 180 c 1,57,58
 180 253 180 253 180 320 c 0,59,60
 180 380 180 380 149 380 c 0,61,62
 114 380 114 380 112 312 c 2,53,-1
EndSplineSet
Validated: 1
EndChar

StartChar: uniE125
Encoding: 57637 57637 22
Width: 1000
Flags: W
LayerCount: 2
Fore
SplineSet
240 300 m 1,0,1
 266 274 266 274 323 274 c 0,2,3
 330 274 330 274 335.5 269 c 128,-1,4
 341 264 341 264 341 256 c 2,5,-1
 349 175 l 2,6,7
 350 168 350 168 345 162.5 c 128,-1,8
 340 157 340 157 333 157 c 2,9,-1
 331 157 l 1,10,-1
 250 165 l 2,11,12
 232 167 232 167 232 183 c 0,13,14
 232 240 232 240 206 266 c 1,15,16
 180 240 180 240 180 183 c 0,17,18
 180 167 180 167 162 165 c 2,19,-1
 81 157 l 1,20,-1
 79 157 l 2,21,22
 72 157 72 157 67 162.5 c 128,-1,23
 62 168 62 168 63 175 c 2,24,-1
 71 256 l 2,25,26
 71 264 71 264 76.5 269 c 128,-1,27
 82 274 82 274 89 274 c 0,28,29
 146 274 146 274 172 300 c 1,30,31
 146 326 146 326 89 326 c 0,32,33
 82 326 82 326 76.5 331 c 128,-1,34
 71 336 71 336 71 344 c 2,35,-1
 63 425 l 2,36,37
 62 432 62 432 67 437.5 c 128,-1,38
 72 443 72 443 79 443 c 2,39,-1
 81 443 l 1,40,-1
 162 435 l 2,41,42
 180 433 180 433 180 417 c 0,43,44
 180 360 180 360 206 334 c 1,45,46
 232 360 232 360 232 417 c 0,47,48
 232 433 232 433 250 435 c 2,49,-1
 331 443 l 1,50,-1
 333 443 l 2,51,52
 340 443 340 443 345 437.5 c 128,-1,53
 350 432 350 432 349 425 c 2,54,-1
 341 344 l 2,55,56
 341 336 341 336 335.5 331 c 128,-1,57
 330 326 330 326 323 326 c 0,58,59
 266 326 266 326 240 300 c 1,0,1
EndSplineSet
Validated: 1
EndChar

StartChar: uniE1A7
Encoding: 57767 57767 23
Width: 1000
Flags: W
LayerCount: 2
Fore
SplineSet
117 411 m 1,0,1
 94 490 94 490 94 570 c 0,2,3
 94 608 94 608 111 642 c 128,-1,4
 128 676 128 676 158 699 c 0,5,6
 159 700 159 700 161 700 c 128,-1,7
 163 700 163 700 164 699 c 0,8,9
 189 670 189 670 207 622 c 128,-1,10
 225 574 225 574 225 537 c 0,11,12
 225 494 225 494 204 457 c 128,-1,13
 183 420 183 420 145 377 c 1,14,15
 157 337 157 337 170 284 c 1,16,-1
 173 284 l 2,17,18
 220 284 220 284 250 251 c 128,-1,19
 280 218 280 218 280 175 c 0,20,21
 280 121 280 121 235 87 c 0,22,23
 219 76 219 76 200 70 c 1,24,25
 200 68 200 68 200 62 c 128,-1,26
 200 56 200 56 200 54 c 0,27,28
 200 21 200 21 199 -4 c 0,29,30
 196 -44 196 -44 170.5 -72 c 128,-1,31
 145 -100 145 -100 108 -100 c 0,32,33
 73 -100 73 -100 48 -74.5 c 128,-1,34
 23 -49 23 -49 23 -14 c 0,35,36
 23 4 23 4 37.5 17 c 128,-1,37
 52 30 52 30 71 30 c 0,38,39
 88 30 88 30 99.5 17 c 128,-1,40
 111 4 111 4 111 -14 c 0,41,42
 111 -30 111 -30 99 -42 c 128,-1,43
 87 -54 87 -54 71 -54 c 0,44,45
 63 -54 63 -54 55 -50 c 1,46,47
 73 -83 73 -83 109 -83 c 0,48,49
 139 -83 139 -83 159.5 -59 c 128,-1,50
 180 -35 180 -35 182 -2 c 0,51,52
 183 23 183 23 183 54 c 2,53,-1
 183 67 l 1,54,55
 167 65 167 65 150 65 c 0,56,57
 91 65 91 65 50.5 111 c 128,-1,58
 10 157 10 157 10 221 c 0,59,60
 10 235 10 235 13 249.5 c 128,-1,61
 16 264 16 264 19 274.5 c 128,-1,62
 22 285 22 285 31 300 c 128,-1,63
 40 315 40 315 44 322.5 c 128,-1,64
 48 330 48 330 61.5 346.5 c 128,-1,65
 75 363 75 363 78.5 367.5 c 128,-1,66
 82 372 82 372 98 390 c 128,-1,67
 114 408 114 408 117 411 c 1,0,1
199 87 m 1,68,69
 222 94 222 94 237 114.5 c 128,-1,70
 252 135 252 135 252 158 c 0,71,72
 252 188 252 188 232.5 211.5 c 128,-1,73
 213 235 213 235 181 239 c 1,74,75
 197 162 197 162 199 87 c 1,68,69
151 81 m 0,76,77
 170 81 170 81 183 83 c 1,78,79
 181 158 181 158 163 240 c 1,80,81
 137 239 137 239 121.5 223.5 c 128,-1,82
 106 208 106 208 106 188 c 0,83,84
 106 155 106 155 141 135 c 1,85,86
 144 132 144 132 144 129 c 0,87,88
 144 121 144 121 135 121 c 0,89,90
 134 121 134 121 132 121 c 0,91,92
 83 148 83 148 83 199 c 0,93,94
 83 228 83 228 102 252 c 128,-1,95
 121 276 121 276 154 282 c 1,96,97
 150 297 150 297 131 362 c 1,98,99
 108 336 108 336 96 321 c 128,-1,100
 84 306 84 306 68.5 282.5 c 128,-1,101
 53 259 53 259 46 236 c 128,-1,102
 39 213 39 213 39 188 c 0,103,104
 39 145 39 145 73 113 c 128,-1,105
 107 81 107 81 151 81 c 0,76,77
181 640 m 1,106,107
 150 623 150 623 131.5 592 c 128,-1,108
 113 561 113 561 113 525 c 0,109,110
 113 485 113 485 130 426 c 1,111,112
 162 464 162 464 179 498 c 128,-1,113
 196 532 196 532 196 570 c 0,114,115
 196 606 196 606 181 640 c 1,106,107
149 -140 m 1,116,117
 156 -145 156 -145 158 -148 c 0,118,119
 163 -154 163 -154 163 -161 c 0,120,121
 163 -174 163 -174 153 -182 c 128,-1,122
 143 -190 143 -190 129 -190 c 0,123,124
 102 -190 102 -190 102 -170 c 0,125,126
 102 -152 102 -152 125 -143 c 1,127,128
 116 -136 116 -136 116 -125 c 0,129,130
 116 -113 116 -113 124.5 -105 c 128,-1,131
 133 -97 133 -97 145 -97 c 0,132,133
 155 -97 155 -97 162 -103 c 128,-1,134
 169 -109 169 -109 169 -117 c 0,135,136
 169 -128 169 -128 160 -134 c 0,137,138
 157 -137 157 -137 149 -140 c 1,116,117
144 -137 m 0,139,140
 145 -137 145 -137 146 -136 c 0,141,142
 159 -130 159 -130 159 -117 c 0,143,144
 159 -111 159 -111 155 -107 c 128,-1,145
 151 -103 151 -103 144 -103 c 0,146,147
 136 -103 136 -103 131 -107.5 c 128,-1,148
 126 -112 126 -112 126 -119 c 0,149,150
 126 -129 126 -129 144 -137 c 0,139,140
130 -146 m 1,151,152
 129 -147 129 -147 128 -147 c 0,153,154
 112 -154 112 -154 112 -168 c 0,155,156
 112 -184 112 -184 130 -184 c 0,157,158
 139 -184 139 -184 145.5 -179 c 128,-1,159
 152 -174 152 -174 152 -167 c 0,160,161
 152 -158 152 -158 142 -152 c 0,162,163
 138 -150 138 -150 130 -146 c 1,151,152
EndSplineSet
Validated: 1
EndChar

StartChar: o
Encoding: 111 111 24
Width: 1000
VWidth: 0
HStem: -78.0439 193.362<361.151 496.252>
VStem: 500.666 20.8058<124.516 480.787 614.435 669.485> 674.002 43.8594<204.498 369.194>
LayerCount: 2
Fore
SplineSet
732.373046875 683.211914062 m 128,-1,1
 741.408203125 691.20703125 741.408203125 691.20703125 756.387695312 691.463867188 c 0,2,3
 756.628076449 691.463867188 756.628076449 691.463867188 756.867135294 691.463867188 c 0,4,5
 771.525169261 691.465927955 771.525169261 691.465927955 781.211914062 675.97265625 c 0,6,7
 786.676748562 667.23054749 786.676748562 667.23054749 786.676748562 658.59709133 c 0,8,9
 786.676748562 651.679191985 786.676748562 651.679191985 783.16796875 644.831054688 c 1,10,11
 717.521705538 553.209937752 717.521705538 553.209937752 647.927478785 456.683555485 c 1,12,13
 700.958878871 395.572109633 700.958878871 395.572109633 716.861328125 336.55859375 c 1,14,15
 723.101888174 308.849387518 723.101888174 308.849387518 723.101888174 284.765131933 c 0,16,17
 723.101888174 236.58531596 723.101888174 236.58531596 698.127929688 202.912109375 c 1,18,19
 685.045898438 205.322265625 685.045898438 205.322265625 679.040039062 215.939453125 c 128,-1,20
 673.032715796 226.556640625 673.032715796 226.556640625 673.000978466 237.762695312 c 0,21,22
 673.000978466 238.112201891 673.000978466 238.112201891 673.000978466 238.466879102 c 0,23,24
 673.000978466 249.484039961 673.000978466 249.484039961 673.94140625 265.490234375 c 0,25,26
 674.344763069 272.36174303 674.344763069 272.36174303 674.344763069 279.043425454 c 0,27,28
 674.344763069 328.835453025 674.344763069 328.835453025 651.9453125 368.0859375 c 0,29,30
 636.844845499 394.545419693 636.844845499 394.545419693 617.78706054 414.905574757 c 1,31,32
 579.09939704 361.31367287 579.09939704 361.31367287 539.22095562 306.242253356 c 1,33,34
 554.061381909 285.607795574 554.061381909 285.607795574 569.220703125 264.50390625 c 0,35,36
 740.916015625 25.4814453125 740.916015625 25.4814453125 761.591796875 -1.3369140625 c 128,-1,37
 782.266601562 -28.154296875 782.266601562 -28.154296875 785.375 -47.7724609375 c 0,38,39
 785.756493435 -50.1803161374 785.756493435 -50.1803161374 785.756493435 -52.4378539512 c 0,40,41
 785.756493435 -68.5746746674 785.756493435 -68.5746746674 766.264648438 -77.03125 c 0,42,43
 758.074742931 -80.5849727885 758.074742931 -80.5849727885 750.986211501 -80.5849727885 c 0,44,45
 738.844803685 -80.5849727885 738.844803685 -80.5849727885 729.934570312 -70.1591796875 c 1,46,47
 684.382994017 -6.31245620235 684.382994017 -6.31245620235 520.167096454 221.181848378 c 1,48,49
 520.16967475 213.43543365 520.16967475 213.43543365 520.16967475 205.940699153 c 0,50,51
 520.163327094 101.587471587 520.163327094 101.587471587 519.657226562 46.017578125 c 1,52,53
 512.368652344 -8.7744140625 512.368652344 -8.7744140625 464.3203125 -44.71875 c 0,54,55
 419.527565875 -78.2218311834 419.527565875 -78.2218311834 367.736239476 -78.2218311834 c 0,56,57
 363.962382943 -78.232436768 363.962382943 -78.232436768 360.151367188 -78.0651564817 c 0,58,59
 359.169967429 -78.0651564817 359.169967429 -78.0651564817 358.195872327 -78.0651564817 c 0,60,61
 320.690940313 -78.0651564817 320.690940313 -78.0651564817 294.014648438 -46.62109375 c 0,62,63
 291.513739193 -43.6729943737 291.513739193 -43.6729943737 289.337016167 -40.6835317293 c 1,64,65
 288.003986175 -42.665026467 288.003986175 -42.665026467 287.09375 -44.072265625 c 0,66,67
 270 -70.501953125 270 -70.501953125 255.002929688 -78.3056640625 c 0,68,69
 248.906419153 -80.7112935503 248.906419153 -80.7112935503 243.275946452 -80.7112935503 c 0,70,71
 230.16381149 -80.7112935503 230.16381149 -80.7112935503 219.579101562 -67.6650390625 c 0,72,73
 211.108488531 -57.2239820007 211.108488531 -57.2239820007 211.108488531 -46.883630742 c 0,74,75
 211.108488531 -38.7544447657 211.108488531 -38.7544447657 216.34375 -30.6875 c 0,76,77
 259.273174178 29.7641381278 259.273174178 29.7641381278 459.039216284 305.841791827 c 1,78,79
 357.853427398 445.947085986 357.853427398 445.947085986 221.1640625 635.014648438 c 1,80,81
 211.428031118 644.204490493 211.428031118 644.204490493 211.428031118 656.34904854 c 0,82,83
 211.428031118 662.856761365 211.428031118 662.856761365 214.223632812 670.212890625 c 0,84,85
 222.237304688 691.296875 222.237304688 691.296875 239.487304688 691.581054688 c 0,86,87
 239.988228032 691.581054688 239.988228032 691.581054688 240.483038394 691.581054688 c 0,88,89
 257.028683513 691.585194785 257.028683513 691.585194785 266.739257812 682.331054688 c 1,90,91
 370.248701045 540.818838852 370.248701045 540.818838852 499.381151488 361.588093243 c 1,92,93
 499.527913045 361.790922622 499.527913045 361.790922622 499.67457453 361.993614784 c 0,94,95
 499.665028076 382.653612163 499.665028076 382.653612163 499.652576265 404.995117188 c 0,96,97
 499.652576265 433.011571491 499.652576265 433.011571491 499.652576265 458.383760583 c 0,98,99
 499.652576265 621.064267113 499.652576265 621.064267113 500.205078125 675.037109375 c 1,100,101
 503.883458109 675.916547384 503.883458109 675.916547384 507.006932744 675.916547384 c 0,102,103
 515.277247015 675.916547384 515.277247015 675.916547384 519.657226562 669.750976562 c 0,104,105
 525.692382812 661.2578125 525.692382812 661.2578125 526.202148438 635.94140625 c 128,-1,106
 526.712890625 610.625 526.712890625 610.625 539.473632812 599.897460938 c 1,107,108
 559.370304353 557.155125401 559.370304353 557.155125401 603.516206284 505.680447453 c 1,109,110
 708.207617322 650.786380084 708.207617322 650.786380084 714.334960938 660.680664062 c 0,111,0
 723.336914062 675.216796875 723.336914062 675.216796875 732.373046875 683.211914062 c 128,-1,1
498.914365024 250.621065031 m 1,112,113
 484.733391639 231.066377137 484.733391639 231.066377137 470.40625 211.330078125 c 0,114,115
 441.089821262 170.945171924 441.089821262 170.945171924 416.412260116 136.86096232 c 1,116,117
 421.019160396 137.186104507 421.019160396 137.186104507 425.613566675 137.186104507 c 0,118,119
 449.812607049 137.186104507 449.812607049 137.186104507 473.665039062 128.166015625 c 1,120,121
 487.055664062 115.509826949 487.055664062 115.509826949 495.251953125 115.318482023 c 0,122,123
 495.330346102 115.318482023 495.330346102 115.318482023 495.407638471 115.318482023 c 0,124,125
 500.835646029 115.318482023 500.835646029 115.318482023 500.835646029 124.346073917 c 0,126,127
 500.835646029 128.631810975 500.835646029 128.631810975 499.612304688 134.952148438 c 1,128,129
 499.697162063 169.70559526 499.697162063 169.70559526 499.704150712 249.527158222 c 0,130,131
 499.309572123 250.073678243 499.309572123 250.073678243 498.914365024 250.621065031 c 1,112,113
520.131049769 390.270516356 m 1,132,133
 546.089200717 426.159333628 546.089200717 426.159333628 568.584462904 457.29770877 c 1,134,135
 563.688155908 461.441969321 563.688155908 461.441969321 557.725585938 466.538085938 c 0,136,137
 536.675399468 484.529355743 536.675399468 484.529355743 525.887199525 484.529355743 c 0,138,139
 522.743834303 484.529355743 522.743834303 484.529355743 520.471679688 483.001953125 c 1,140,141
 520.212888719 446.919671257 520.212888719 446.919671257 520.131049769 390.270516356 c 1,132,133
EndSplineSet
EndChar

StartChar: I
Encoding: 73 73 25
Width: 327
Flags: W
HStem: -112 19<16 80.8828 249.55 313> 531 19<16 77.4453 250.954 313>
VStem: 113 102<-73.975 511.006>
LayerCount: 2
Fore
SplineSet
113 -3 m 2,0,-1
 113 441 l 2,1,2
 113 496 113 496 96.5 511.5 c 128,-1,3
 80 527 80 527 16 531 c 1,4,-1
 16 550 l 1,5,-1
 313 550 l 1,6,-1
 313 531 l 1,7,8
 250 528 250 528 232.5 512 c 128,-1,9
 215 496 215 496 215 441 c 2,10,-1
 215 -3 l 2,11,12
 215 -58 215 -58 233 -74.5 c 128,-1,13
 251 -91 251 -91 313 -93 c 1,14,-1
 313 -112 l 1,15,-1
 16 -112 l 1,16,-1
 16 -93 l 1,17,18
 79 -91 79 -91 96 -75 c 128,-1,19
 113 -59 113 -59 113 -3 c 2,0,-1
EndSplineSet
Validated: 1
EndChar

StartChar: V
Encoding: 86 86 26
Width: 701
Flags: W
LayerCount: 2
Fore
SplineSet
686.5 557 m 5,0,-1
 686.5 538 l 5,1,2
 649.5 536 649.5 536 634 520 c 132,-1,3
 618.5 504 618.5 504 594.5 445 c 6,4,-1
 372.5 -116 l 5,5,-1
 357.5 -116 l 5,6,-1
 111.5 433 l 6,7,8
 82.5 499 82.5 499 63 517.5 c 132,-1,9
 43.5 536 43.5 536 5.5 538 c 5,10,-1
 5.5 557 l 5,11,-1
 271.5 557 l 5,12,-1
 271.5 538 l 5,13,14
 243.5 536 243.5 536 242.5 536 c 4,15,16
 196.5 533 196.5 533 196.5 505 c 4,17,18
 196.5 485 196.5 485 237.5 394 c 6,19,-1
 388.5 56 l 5,20,-1
 535.5 423 l 6,21,22
 554.5 471 554.5 471 554.5 496 c 4,23,24
 554.5 517 554.5 517 538.5 526.5 c 132,-1,25
 522.5 536 522.5 536 481.5 538 c 5,26,-1
 481.5 557 l 5,27,-1
 686.5 557 l 5,0,-1
EndSplineSet
Validated: 1
EndChar

StartChar: X
Encoding: 88 88 27
Width: 714
Flags: W
LayerCount: 2
Fore
SplineSet
702 535 m 5,0,-1
 702 516 l 5,1,2
 653 513 653 513 626.5 496.5 c 132,-1,3
 600 480 600 480 553 422 c 6,4,-1
 407 240 l 5,5,-1
 599 -34 l 6,6,7
 629 -77 629 -77 649 -90 c 132,-1,8
 669 -103 669 -103 710 -108 c 5,9,-1
 710 -127 l 5,10,-1
 413 -127 l 5,11,-1
 413 -108 l 5,12,13
 454 -104 454 -104 472 -97.5 c 132,-1,14
 490 -91 490 -91 490 -77 c 4,15,16
 490 -55 490 -55 439 21 c 6,17,-1
 344 161 l 5,18,-1
 225 13 l 6,19,20
 173 -52 173 -52 173 -73 c 4,21,22
 173 -90 173 -90 189 -97.5 c 132,-1,23
 205 -105 205 -105 249 -108 c 5,24,-1
 249 -127 l 5,25,-1
 16 -127 l 5,26,-1
 16 -108 l 5,27,28
 55 -105 55 -105 76 -89 c 132,-1,29
 97 -73 97 -73 161 6 c 6,30,-1
 318 199 l 5,31,-1
 209 359 l 6,32,33
 139 462 139 462 108.5 488 c 132,-1,34
 78 514 78 514 28 516 c 5,35,-1
 28 535 l 5,36,-1
 330 535 l 5,37,-1
 330 516 l 5,38,-1
 302 515 l 6,39,40
 254 514 254 514 254 486 c 4,41,42
 254 454 254 454 339 336 c 6,43,-1
 381 277 l 5,44,-1
 494 415 l 6,45,46
 534 465 534 465 534 484 c 4,47,48
 534 501 534 501 519.5 507.5 c 132,-1,49
 505 514 505 514 464 516 c 5,50,-1
 464 535 l 5,51,-1
 702 535 l 5,0,-1
EndSplineSet
Validated: 1
EndChar

StartChar: exclam
Encoding: 33 33 28
Width: 381
Flags: W
LayerCount: 2
Fore
SplineSet
12.119140625 -24.6708984375 m 132,-1,1
 12.119140625 0.849609375 12.119140625 0.849609375 36.216796875 22.5048828125 c 132,-1,2
 60.314453125 44.16015625 60.314453125 44.16015625 101.78125 56.7451171875 c 132,-1,3
 143.249023438 69.3291015625 143.249023438 69.3291015625 192.119140625 69.3291015625 c 4,4,5
 266.638671875 69.3291015625 266.638671875 69.3291015625 319.37890625 41.787109375 c 132,-1,6
 372.119140625 14.2451171875 372.119140625 14.2451171875 372.119140625 -24.6708984375 c 132,-1,7
 372.119140625 -63.5869140625 372.119140625 -63.5869140625 319.37890625 -91.12890625 c 132,-1,8
 266.638671875 -118.670898438 266.638671875 -118.670898438 192.119140625 -118.670898438 c 4,9,10
 143.249023438 -118.670898438 143.249023438 -118.670898438 101.78125 -106.086914062 c 132,-1,11
 60.314453125 -93.5029296875 60.314453125 -93.5029296875 36.216796875 -71.84765625 c 132,-1,0
 12.119140625 -50.1923828125 12.119140625 -50.1923828125 12.119140625 -24.6708984375 c 132,-1,1
17 607 m 0,12,13
 17 614 17 614 113 655 c 0,14,15
 220 701 220 701 267 703 c 1,16,-1
 267 188 l 2,17,18
 267 144 267 144 245 136 c 0,19,20
 234 131 234 131 218 131 c 2,21,-1
 153 131 l 2,22,23
 113 131 113 131 92 138 c 0,24,25
 80 141 80 141 80 148 c 1,26,27
 80 146 80 146 90.5 176 c 128,-1,28
 101 206 101 206 101 244 c 2,29,-1
 101 265 l 2,30,31
 101 446 101 446 59 524 c 1,32,33
 46 543 46 543 32 563 c 1,34,35
 17 587 17 587 17 607 c 0,12,13
EndSplineSet
Validated: 1
EndChar

StartChar: c
Encoding: 99 99 29
Width: 757
VWidth: 0
Flags: W
HStem: 5.55078 24<73.8697 673.255> 102.672 39.4629<146.644 262.7 495.452 590.083> 325.975 39.4609<495.581 590.115> 404.898 40.9082<146.41 273.794> 518.926 24<73.8697 673.255>
VStem: 21.1719 24<58.2487 490.228> 99.0811 46.6816<147.203 404.642> 323.346 49.5684<194.118 357.061> 425.318 46.6816<165.678 302.313> 613.489 46.6816<165.682 302.426> 701.953 24<58.2487 490.228>
LayerCount: 2
Fore
SplineSet
111.484375 542.92578125 m 2,0,1
 635.640625 542.92578125 l 2,2,3
 673.01171875 542.92578125 673.01171875 542.92578125 699.482421875 516.455078125 c 128,-1,4
 725.953125 489.984375 725.953125 489.984375 725.953125 452.61328125 c 2,5,-1
 725.953125 95.86328125 l 2,6,7
 725.953125 58.4921875 725.953125 58.4921875 699.482421875 32.021484375 c 128,-1,8
 673.01171875 5.55078125 673.01171875 5.55078125 635.640625 5.55078125 c 2,9,-1
 111.484375 5.55078125 l 2,10,11
 74.11328125 5.55078125 74.11328125 5.55078125 47.642578125 32.021484375 c 128,-1,12
 21.171875 58.4921875 21.171875 58.4921875 21.171875 95.86328125 c 2,13,-1
 21.171875 452.61328125 l 2,14,15
 21.171875 489.984375 21.171875 489.984375 47.642578125 516.455078125 c 128,-1,16
 74.11328125 542.92578125 74.11328125 542.92578125 111.484375 542.92578125 c 2,0,1
111.484375 518.92578125 m 2,17,18
 83.7734375 518.92578125 83.7734375 518.92578125 64.47265625 499.625 c 128,-1,19
 45.171875 480.32421875 45.171875 480.32421875 45.171875 452.61328125 c 2,20,-1
 45.171875 95.86328125 l 2,21,22
 45.171875 68.15234375 45.171875 68.15234375 64.47265625 48.8515625 c 128,-1,23
 83.7734375 29.55078125 83.7734375 29.55078125 111.484375 29.55078125 c 2,24,-1
 635.640625 29.55078125 l 2,25,26
 663.3515625 29.55078125 663.3515625 29.55078125 682.65234375 48.8515625 c 128,-1,27
 701.953125 68.15234375 701.953125 68.15234375 701.953125 95.86328125 c 2,28,-1
 701.953125 452.61328125 l 2,29,30
 701.953125 480.32421875 701.953125 480.32421875 682.65234375 499.625 c 128,-1,31
 663.3515625 518.92578125 663.3515625 518.92578125 635.640625 518.92578125 c 2,32,-1
 111.484375 518.92578125 l 2,17,18
99.0810546875 437.625 m 1,33,34
 132.6328125 445.806640625 132.6328125 445.806640625 180.584960938 445.806640625 c 0,35,36
 319.814453125 445.806640625 319.814453125 445.806640625 359.439453125 350.998046875 c 0,37,38
 372.9140625 319.236328125 372.9140625 319.236328125 372.9140625 275.923828125 c 0,39,40
 372.9140625 148.74609375 372.9140625 148.74609375 262.70703125 116.146484375 c 0,41,42
 228.538085938 106.0390625 228.538085938 106.0390625 180.583984375 106.0390625 c 128,-1,43
 132.62890625 106.041015625 132.62890625 106.041015625 99.0810546875 114.220703125 c 1,44,-1
 99.0810546875 437.625 l 1,33,34
290.620117188 180.634765625 m 0,45,46
 323.344726562 214.802734375 323.344726562 214.802734375 323.345703125 275.923828125 c 128,-1,47
 323.34375 337.04296875 323.34375 337.04296875 290.619140625 370.970703125 c 128,-1,48
 257.89453125 404.8984375 257.89453125 404.8984375 191.481445312 404.8984375 c 0,49,50
 158.764648438 404.8984375 158.764648438 404.8984375 145.762695312 403.455078125 c 1,51,-1
 145.762695312 148.390625 l 1,52,53
 158.744176208 146.947262989 158.744176208 146.947262989 191.393168875 146.947262989 c 0,54,55
 257.896457674 146.949248673 257.896457674 146.949248673 290.620117188 180.634765625 c 0,45,46
458.043945312 329.341796875 m 0,56,57
 491.1328125 365.435546875 491.1328125 365.435546875 543.005859375 365.435546875 c 128,-1,58
 594.879882812 365.435546875 594.879882812 365.435546875 627.525390625 329.27734375 c 128,-1,59
 660.170898438 293.119140625 660.170898438 293.119140625 660.170898438 234.0546875 c 128,-1,60
 660.170898438 174.990234375 660.170898438 174.990234375 627.526367188 138.830078125 c 128,-1,61
 594.881835938 102.671875 594.881835938 102.671875 542.745117188 102.671875 c 0,62,63
 491.130859375 102.671875 491.130859375 102.671875 458.043945312 138.765625 c 0,64,65
 425.318359375 175.5859375 425.318359375 175.5859375 425.318359375 234.0546875 c 128,-1,66
 425.318359375 292.52734375 425.318359375 292.52734375 458.043945312 329.341796875 c 0,56,57
613.489257812 234.0546875 m 128,-1,68
 613.489257812 276.404296875 613.489257812 276.404296875 594.48046875 301.189453125 c 128,-1,69
 575.470703125 325.97265625 575.470703125 325.97265625 542.745117188 325.974609375 c 128,-1,70
 510.01953125 325.97265625 510.01953125 325.97265625 491.009765625 301.1875 c 128,-1,71
 472 276.404296875 472 276.404296875 472 234.052734375 c 128,-1,72
 472 191.703125 472 191.703125 490.76953125 166.677734375 c 0,73,74
 510.01953125 142.134765625 510.01953125 142.134765625 542.745117188 142.134765625 c 128,-1,75
 575.469726562 142.134765625 575.469726562 142.134765625 594.478515625 166.91796875 c 128,-1,67
 613.48828125 191.703125 613.48828125 191.703125 613.489257812 234.0546875 c 128,-1,68
EndSplineSet
Validated: 1
EndChar

StartChar: s
Encoding: 115 115 30
Width: 1000
VWidth: 0
HStem: -62.9785 20.7949<271.316 336.713> -20.5908 79.5771<258.48 290.538> 66 24<41 957> 93.377 20.7939<295.188 370.348> 147.36 32.6396<318.076 326.694> 156 24<41 279.278 305.328 957> 257 24<43 959> 351 24<41 957> 455 24<41 957>
VStem: 203.196 32.3906<180.721 256.788> 219.191 82.7754<-9.0788 46.3141> 261.979 23.9932<485.041 579.579> 265.978 31.1914<180.211 245.349> 363.149 32.3906<515.134 621.507> 371.147 20.7939<0.973694 95.7754> 430.729 30.3916<162.806 228.999> 699.16 18.292<180.049 506.419 618.53 668.799> 852.936 41.3838<281.265 375.858>
LayerCount: 2
Fore
SplineSet
41 479 m 1,0,-1
 957 479 l 1,1,-1
 957 455 l 1,2,-1
 41 455 l 1,3,-1
 41 479 l 1,0,-1
41 375 m 1,4,-1
 957 375 l 1,5,-1
 957 351 l 1,6,-1
 41 351 l 1,7,-1
 41 375 l 1,4,-1
43 281 m 1,8,-1
 959 281 l 1,9,-1
 959 257 l 1,10,-1
 43 257 l 1,11,-1
 43 281 l 1,8,-1
41 180 m 1,12,-1
 957 180 l 1,13,-1
 957 156 l 1,14,-1
 41 156 l 1,15,-1
 41 180 l 1,12,-1
41 90 m 1,16,-1
 957 90 l 1,17,-1
 957 66 l 1,18,-1
 41 66 l 1,19,-1
 41 90 l 1,16,-1
576.889648438 8.5966796875 m 1,20,21
 547.756835938 8.6884765625 547.756835938 8.6884765625 525.056640625 29.4326171875 c 0,22,23
 503.29296875 49.3193359375 503.29296875 49.3193359375 503.29296875 80.9599609375 c 0,24,25
 503.29296875 116.053710938 503.29296875 116.053710938 530.78125 147.998046875 c 0,26,27
 557.252929688 178.760742188 557.252929688 178.760742188 596.102539062 190.880859375 c 0,28,29
 615.732421875 197.00390625 615.732421875 197.00390625 634.647460938 197.00390625 c 0,30,31
 653.166015625 197.00390625 653.166015625 197.00390625 671 191.133789062 c 1,32,33
 676.225585938 190.529296875 676.225585938 190.529296875 685.254882812 182.79296875 c 128,-1,34
 694.28515625 175.056640625 694.28515625 175.056640625 697.845703125 175.301757812 c 128,-1,35
 701.407226562 175.547851562 701.407226562 175.547851562 699.104492188 187.76953125 c 1,36,37
 699.206054688 225.385742188 699.206054688 225.385742188 699.206054688 312.291015625 c 0,38,39
 699.206054688 362.143554688 699.206054688 362.143554688 699.172851562 428.216796875 c 0,40,41
 699.16015625 453.606445312 699.16015625 453.606445312 699.16015625 476.6015625 c 0,42,43
 699.16015625 617.758789062 699.16015625 617.758789062 699.643554688 668.655273438 c 1,44,45
 715.287109375 674.907226562 715.287109375 674.907226562 718.866210938 661.02734375 c 0,46,47
 720.854492188 653.317382812 720.854492188 653.317382812 721.18359375 645.280273438 c 0,48,49
 722.098632812 622.893554688 722.098632812 622.893554688 728.6328125 615.56640625 c 1,50,51
 749.778320312 560.786132812 749.778320312 560.786132812 812.78125 495.565429688 c 0,52,53
 873.162109375 433.059570312 873.162109375 433.059570312 888.213867188 373.311523438 c 0,54,55
 894.319335938 349.080078125 894.319335938 349.080078125 894.319335938 327.047851562 c 0,56,57
 894.319335938 294.75390625 894.319335938 294.75390625 881.204101562 267.185546875 c 1,58,59
 876.538085938 253.541015625 876.538085938 253.541015625 870.28125 253.541015625 c 0,60,61
 865.236328125 253.541015625 865.236328125 253.541015625 859.15625 262.413085938 c 0,62,63
 849.811523438 276.05078125 849.811523438 276.05078125 849.811523438 288.682617188 c 0,64,65
 849.811523438 294.4609375 849.811523438 294.4609375 851.766601562 300.029296875 c 1,66,67
 852.935546875 311.235351562 852.935546875 311.235351562 852.935546875 321.9375 c 0,68,69
 852.935546875 395.96875 852.935546875 395.96875 797.002929688 445.923828125 c 0,70,71
 752.985351562 486.159179688 752.985351562 486.159179688 717.452148438 506.418945312 c 1,72,73
 717.073242188 457.446289062 717.073242188 457.446289062 717.073242188 368.853515625 c 0,74,75
 717.073242188 342.163085938 717.073242188 342.163085938 717.107421875 311.875976562 c 0,76,77
 717.139648438 284.153320312 717.139648438 284.153320312 717.139648438 259.444335938 c 0,78,79
 717.139648438 167.555664062 717.139648438 167.555664062 716.704101562 117.333984375 c 1,80,81
 710.432617188 69.412109375 710.432617188 69.412109375 668.174804688 37.8154296875 c 0,82,83
 628.875 8.4306640625 628.875 8.4306640625 583.71875 8.4306640625 c 0,84,85
 580.321289062 8.4306640625 580.321289062 8.4306640625 576.889648438 8.5966796875 c 1,20,21
461.12109375 199.745117188 m 0,86,87
 461.12109375 164.4140625 461.12109375 164.4140625 440.990234375 137.834960938 c 128,-1,88
 420.859375 111.255859375 420.859375 111.255859375 391.94140625 100.974609375 c 1,89,-1
 391.94140625 85.37890625 l 2,90,91
 391.94140625 54.29296875 391.94140625 54.29296875 389.94140625 31.7939453125 c 0,92,93
 386.499023438 -7.3310546875 386.499023438 -7.3310546875 363.059570312 -35.1552734375 c 128,-1,94
 339.62109375 -62.978515625 339.62109375 -62.978515625 305.166015625 -62.978515625 c 0,95,96
 269.807617188 -62.978515625 269.807617188 -62.978515625 244.499023438 -39.6103515625 c 128,-1,97
 219.19140625 -16.2431640625 219.19140625 -16.2431640625 219.19140625 17.3984375 c 0,98,99
 219.19140625 34.5751953125 219.19140625 34.5751953125 232.6171875 46.78125 c 128,-1,100
 246.04296875 58.986328125 246.04296875 58.986328125 263.978515625 58.986328125 c 0,101,102
 279.979492188 58.986328125 279.979492188 58.986328125 290.97265625 46.69921875 c 128,-1,103
 301.966796875 34.4111328125 301.966796875 34.4111328125 301.966796875 17.3984375 c 0,104,105
 301.966796875 1.7333984375 301.966796875 1.7333984375 290.885742188 -9.4287109375 c 128,-1,106
 279.8046875 -20.5908203125 279.8046875 -20.5908203125 263.978515625 -20.5908203125 c 0,107,108
 261.583007812 -20.5908203125 261.583007812 -20.5908203125 258.379882812 -19.791015625 c 1,109,110
 276.163085938 -42.18359375 276.163085938 -42.18359375 305.166015625 -42.18359375 c 0,111,112
 331.563476562 -42.18359375 331.563476562 -42.18359375 348.927734375 -19.6669921875 c 128,-1,113
 366.291015625 2.849609375 366.291015625 2.849609375 369.147460938 34.59375 c 0,114,115
 371.147460938 55.5927734375 371.147460938 55.5927734375 371.147460938 84.978515625 c 2,116,-1
 371.147460938 95.775390625 l 1,117,118
 357.348632812 93.376953125 357.348632812 93.376953125 343.155273438 93.376953125 c 0,119,120
 284.947265625 93.376953125 284.947265625 93.376953125 244.072265625 135.87109375 c 128,-1,121
 203.196289062 178.366210938 203.196289062 178.366210938 203.196289062 237.734375 c 0,122,123
 203.196289062 251.193359375 203.196289062 251.193359375 205.849609375 265.283203125 c 128,-1,124
 208.502929688 279.372070312 208.502929688 279.372070312 210.782226562 289.435546875 c 128,-1,125
 213.060546875 299.499023438 213.060546875 299.499023438 221.0546875 315.232421875 c 128,-1,126
 229.048828125 330.965820312 229.048828125 330.965820312 231.86328125 337.366210938 c 128,-1,127
 234.677734375 343.765625 234.677734375 343.765625 246.793945312 361.564453125 c 128,-1,128
 258.911132812 379.36328125 258.911132812 379.36328125 261.041992188 382.521484375 c 128,-1,129
 263.173828125 385.678710938 263.173828125 385.678710938 278.194335938 405.965820312 c 128,-1,130
 293.21484375 426.251953125 293.21484375 426.251953125 293.969726562 427.279296875 c 1,131,132
 276.083984375 472.481445312 276.083984375 472.481445312 269.03125 502.908203125 c 128,-1,133
 261.978515625 533.333984375 261.978515625 533.333984375 261.978515625 575.236328125 c 0,134,135
 261.978515625 608.478515625 261.978515625 608.478515625 275.540039062 639.130859375 c 128,-1,136
 289.100585938 669.782226562 289.100585938 669.782226562 303.334960938 684.891601562 c 128,-1,137
 317.569335938 700 317.569335938 700 324.360351562 700 c 0,138,139
 332.956054688 700 332.956054688 700 349.76953125 677.084960938 c 128,-1,140
 366.583007812 654.169921875 366.583007812 654.169921875 381.061523438 617.74609375 c 128,-1,141
 395.540039062 581.322265625 395.540039062 581.322265625 395.540039062 550.84375 c 0,142,143
 395.540039062 522.752929688 395.540039062 522.752929688 385.465820312 493.763671875 c 128,-1,144
 375.391601562 464.774414062 375.391601562 464.774414062 362.693359375 443.836914062 c 128,-1,145
 349.994140625 422.900390625 349.994140625 422.900390625 329.159179688 394.489257812 c 1,146,147
 345.447265625 350.012695312 345.447265625 350.012695312 357.55078125 308.513671875 c 1,148,149
 403.279296875 306.77734375 403.279296875 306.77734375 432.200195312 274.401367188 c 128,-1,150
 461.12109375 242.026367188 461.12109375 242.026367188 461.12109375 199.745117188 c 0,86,87
391.141601562 122.16796875 m 1,151,152
 407.92578125 129.591796875 407.92578125 129.591796875 419.327148438 146.0703125 c 128,-1,153
 430.729492188 162.548828125 430.729492188 162.548828125 430.729492188 184.150390625 c 0,154,155
 430.729492188 200.787109375 430.729492188 200.787109375 423.53125 216.090820312 c 128,-1,156
 416.333984375 231.395507812 416.333984375 231.395507812 402.604492188 242.716796875 c 128,-1,157
 388.875 254.038085938 388.875 254.038085938 371.147460938 258.12890625 c 1,158,159
 387.360351562 186.44921875 387.360351562 186.44921875 391.141601562 122.16796875 c 1,151,152
323.9609375 147.360351562 m 0,160,161
 318.076171875 147.360351562 318.076171875 147.360351562 305.328125 154.953125 c 128,-1,162
 292.580078125 162.545898438 292.580078125 162.545898438 279.278320312 181.888671875 c 128,-1,163
 265.977539062 201.232421875 265.977539062 201.232421875 265.977539062 225.73828125 c 0,164,165
 265.977539062 244.836914062 265.977539062 244.836914062 274.069335938 261.907226562 c 128,-1,166
 282.162109375 278.977539062 282.162109375 278.977539062 298.540039062 291.40625 c 128,-1,167
 314.918945312 303.8359375 314.918945312 303.8359375 336.756835938 307.314453125 c 1,168,169
 325.298828125 345.732421875 325.298828125 345.732421875 314.36328125 374.89453125 c 1,170,171
 288.483398438 340.125976562 288.483398438 340.125976562 275.002929688 319.560546875 c 128,-1,172
 261.5234375 298.99609375 261.5234375 298.99609375 248.5546875 265.875976562 c 128,-1,173
 235.586914062 232.755859375 235.586914062 232.755859375 235.586914062 201.745117188 c 0,174,175
 235.586914062 166.169921875 235.586914062 166.169921875 269.073242188 140.169921875 c 128,-1,176
 302.560546875 114.170898438 302.560546875 114.170898438 343.155273438 114.170898438 c 0,177,178
 359.352539062 114.170898438 359.352539062 114.170898438 370.34765625 116.169921875 c 1,179,180
 367.004882812 184.919921875 367.004882812 184.919921875 349.153320312 259.728515625 c 1,181,182
 325.231445312 258.575195312 325.231445312 258.575195312 311.200195312 245.098632812 c 128,-1,183
 297.168945312 231.622070312 297.168945312 231.622070312 297.168945312 213.341796875 c 0,184,185
 297.168945312 182.55078125 297.168945312 182.55078125 330.758789062 165.755859375 c 1,186,187
 334.357421875 162.157226562 334.357421875 162.157226562 334.357421875 158.157226562 c 0,188,189
 334.357421875 155.3984375 334.357421875 155.3984375 332.94140625 152.90234375 c 128,-1,190
 331.525390625 150.40625 331.525390625 150.40625 329.109375 148.883789062 c 128,-1,191
 326.694335938 147.360351562 326.694335938 147.360351562 323.9609375 147.360351562 c 0,160,161
348.353515625 634.418945312 m 1,192,193
 319.508789062 617.893554688 319.508789062 617.893554688 302.740234375 588.936523438 c 128,-1,194
 285.971679688 559.979492188 285.971679688 559.979492188 285.971679688 526.450195312 c 0,195,196
 285.971679688 510.408203125 285.971679688 510.408203125 309.165039062 448.073242188 c 1,197,198
 363.149414062 525.401367188 363.149414062 525.401367188 363.149414062 586.833007812 c 0,199,200
 363.149414062 612.719726562 363.149414062 612.719726562 348.353515625 634.418945312 c 1,192,193
EndSplineSet
EndChar
